# MagicaVoxel @ Ephtracy

# group
o 

# material
mtllib gatling barrel.mtl
usemtl palette

# normals
vn -1 0 0
vn 1 0 0
vn 0 0 1
vn 0 0 -1
vn 0 -1 0
vn 0 1 0

# texcoords
vt 0.341797 0.5
vt 0.986328 0.5
vt 0.990234 0.5
vt 0.994141 0.5

# verts
v -0.5 3.2 0.3
v -0.5 3.2 0.2
v -0.5 3.3 0.2
v -0.5 3.3 -1.3
v -0.5 3.3 -1.4
v -0.5 3.3 -1.7
v -0.5 3.5 0.2
v -0.5 3.5 -1.3
v -0.5 3.5 -1.4
v -0.5 3.5 -1.7
v -0.5 3.6 0.3
v -0.5 3.6 0.2
v -0.4 3.1 0.3
v -0.4 3.1 0.2
v -0.4 3.2 0.3
v -0.4 3.2 0.2
v -0.4 3.2 -1.3
v -0.4 3.2 -1.4
v -0.4 3.3 0.2
v -0.4 3.3 -1.3
v -0.4 3.3 -1.4
v -0.4 3.5 0.2
v -0.4 3.5 -1.3
v -0.4 3.5 -1.4
v -0.4 3.6 0.3
v -0.4 3.6 0.2
v -0.4 3.6 -1.3
v -0.4 3.6 -1.4
v -0.4 3.7 0.3
v -0.4 3.7 0.2
v -0.3 3 0.3
v -0.3 3 0.2
v -0.3 3 -1.3
v -0.3 3 -1.4
v -0.3 3 -1.7
v -0.3 3.1 0.3
v -0.3 3.1 0.2
v -0.3 3.2 0.2
v -0.3 3.2 -1.3
v -0.3 3.2 -1.4
v -0.3 3.2 -1.7
v -0.3 3.6 0.2
v -0.3 3.6 -1.3
v -0.3 3.6 -1.4
v -0.3 3.6 -1.7
v -0.3 3.7 0.3
v -0.3 3.7 0.2
v -0.3 3.8 0.3
v -0.3 3.8 0.2
v -0.3 3.8 -1.3
v -0.3 3.8 -1.4
v -0.3 3.8 -1.7
v -0.2 2.9 0.3
v -0.2 2.9 0.2
v -0.2 3 0.3
v -0.2 3 0.2
v -0.2 3.8 0.3
v -0.2 3.8 0.2
v -0.2 3.9 0.3
v -0.2 3.9 0.2
v -0.1 2.8 0.3
v -0.1 2.8 0.2
v -0.1 2.9 0.3
v -0.1 2.9 0.2
v -0.1 2.9 -1.3
v -0.1 2.9 -1.4
v -0.1 3 0.2
v -0.1 3 -1.3
v -0.1 3 -1.4
v -0.1 3.2 0.2
v -0.1 3.2 -1.3
v -0.1 3.6 0.2
v -0.1 3.6 -1.3
v -0.1 3.8 0.2
v -0.1 3.8 -1.3
v -0.1 3.8 -1.4
v -0.1 3.9 0.3
v -0.1 3.9 0.2
v -0.1 3.9 -1.3
v -0.1 3.9 -1.4
v -0.1 4 0.3
v -0.1 4 0.2
v 0 2.8 0.2
v 0 2.8 -1.3
v 0 2.8 -1.4
v 0 2.8 -1.7
v 0 2.9 0.2
v 0 2.9 -1.3
v 0 2.9 -1.4
v 0 3 -1.4
v 0 3 -1.5
v 0 3 -1.7
v 0 3.3 -1.4
v 0 3.3 -1.5
v 0 3.3 -1.6
v 0 3.5 -1.4
v 0 3.5 -1.5
v 0 3.5 -1.6
v 0 3.8 -1.4
v 0 3.8 -1.5
v 0 3.8 -1.7
v 0 3.9 0.2
v 0 3.9 -1.3
v 0 3.9 -1.4
v 0 4 0.2
v 0 4 -1.3
v 0 4 -1.4
v 0 4 -1.7
v 0.3 3 -1.4
v 0.3 3 -1.7
v 0.3 3.2 -1.4
v 0.3 3.2 -1.7
v 0.3 3.6 -1.4
v 0.3 3.6 -1.7
v 0.3 3.8 -1.4
v 0.3 3.8 -1.7
v 0.5 3.2 0.2
v 0.5 3.2 -1.3
v 0.5 3.3 0.2
v 0.5 3.3 -1.3
v 0.5 3.3 -1.5
v 0.5 3.3 -1.7
v 0.5 3.5 0.2
v 0.5 3.5 -1.3
v 0.5 3.5 -1.5
v 0.5 3.5 -1.7
v 0.5 3.6 0.2
v 0.5 3.6 -1.3
v -0.3 3.2 0.2
v -0.3 3.2 -1.3
v -0.3 3.3 0.2
v -0.3 3.3 -1.3
v -0.3 3.3 -1.5
v -0.3 3.3 -1.7
v -0.3 3.5 0.2
v -0.3 3.5 -1.3
v -0.3 3.5 -1.5
v -0.3 3.5 -1.7
v -0.3 3.6 0.2
v -0.3 3.6 -1.3
v -0.1 3 -1.4
v -0.1 3 -1.7
v -0.1 3.2 -1.4
v -0.1 3.2 -1.7
v -0.1 3.6 -1.4
v -0.1 3.6 -1.7
v -0.1 3.8 -1.4
v -0.1 3.8 -1.7
v 0.2 2.8 0.2
v 0.2 2.8 -1.3
v 0.2 2.8 -1.4
v 0.2 2.8 -1.7
v 0.2 2.9 0.2
v 0.2 2.9 -1.3
v 0.2 2.9 -1.4
v 0.2 3 -1.4
v 0.2 3 -1.5
v 0.2 3 -1.7
v 0.2 3.3 -1.4
v 0.2 3.3 -1.5
v 0.2 3.3 -1.6
v 0.2 3.5 -1.4
v 0.2 3.5 -1.5
v 0.2 3.5 -1.6
v 0.2 3.8 -1.4
v 0.2 3.8 -1.5
v 0.2 3.8 -1.7
v 0.2 3.9 0.2
v 0.2 3.9 -1.3
v 0.2 3.9 -1.4
v 0.2 4 0.2
v 0.2 4 -1.3
v 0.2 4 -1.4
v 0.2 4 -1.7
v 0.3 2.8 0.3
v 0.3 2.8 0.2
v 0.3 2.9 0.3
v 0.3 2.9 0.2
v 0.3 2.9 -1.3
v 0.3 2.9 -1.4
v 0.3 3 0.2
v 0.3 3 -1.3
v 0.3 3 -1.4
v 0.3 3.2 0.2
v 0.3 3.2 -1.3
v 0.3 3.6 0.2
v 0.3 3.6 -1.3
v 0.3 3.8 0.2
v 0.3 3.8 -1.3
v 0.3 3.8 -1.4
v 0.3 3.9 0.3
v 0.3 3.9 0.2
v 0.3 3.9 -1.3
v 0.3 3.9 -1.4
v 0.3 4 0.3
v 0.3 4 0.2
v 0.4 2.9 0.3
v 0.4 2.9 0.2
v 0.4 3 0.3
v 0.4 3 0.2
v 0.4 3.8 0.3
v 0.4 3.8 0.2
v 0.4 3.9 0.3
v 0.4 3.9 0.2
v 0.5 3 0.3
v 0.5 3 0.2
v 0.5 3 -1.3
v 0.5 3 -1.4
v 0.5 3 -1.7
v 0.5 3.1 0.3
v 0.5 3.1 0.2
v 0.5 3.2 0.2
v 0.5 3.2 -1.3
v 0.5 3.2 -1.4
v 0.5 3.2 -1.7
v 0.5 3.6 0.2
v 0.5 3.6 -1.3
v 0.5 3.6 -1.4
v 0.5 3.6 -1.7
v 0.5 3.7 0.3
v 0.5 3.7 0.2
v 0.5 3.8 0.3
v 0.5 3.8 0.2
v 0.5 3.8 -1.3
v 0.5 3.8 -1.4
v 0.5 3.8 -1.7
v 0.6 3.1 0.3
v 0.6 3.1 0.2
v 0.6 3.2 0.3
v 0.6 3.2 0.2
v 0.6 3.2 -1.3
v 0.6 3.2 -1.4
v 0.6 3.3 0.2
v 0.6 3.3 -1.3
v 0.6 3.3 -1.4
v 0.6 3.5 0.2
v 0.6 3.5 -1.3
v 0.6 3.5 -1.4
v 0.6 3.6 0.3
v 0.6 3.6 0.2
v 0.6 3.6 -1.3
v 0.6 3.6 -1.4
v 0.6 3.7 0.3
v 0.6 3.7 0.2
v 0.7 3.2 0.3
v 0.7 3.2 0.2
v 0.7 3.3 0.2
v 0.7 3.3 -1.3
v 0.7 3.3 -1.4
v 0.7 3.3 -1.7
v 0.7 3.5 0.2
v 0.7 3.5 -1.3
v 0.7 3.5 -1.4
v 0.7 3.5 -1.7
v 0.7 3.6 0.3
v 0.7 3.6 0.2
v -0.5 3.2 0.3
v -0.5 3.6 0.3
v -0.4 3.1 0.3
v -0.4 3.2 0.3
v -0.4 3.6 0.3
v -0.4 3.7 0.3
v -0.3 3 0.3
v -0.3 3.1 0.3
v -0.3 3.7 0.3
v -0.3 3.8 0.3
v -0.2 2.9 0.3
v -0.2 3 0.3
v -0.2 3.8 0.3
v -0.2 3.9 0.3
v -0.1 2.8 0.3
v -0.1 2.9 0.3
v -0.1 3.9 0.3
v -0.1 4 0.3
v 0.3 2.8 0.3
v 0.3 2.9 0.3
v 0.3 3.9 0.3
v 0.3 4 0.3
v 0.4 2.9 0.3
v 0.4 3 0.3
v 0.4 3.8 0.3
v 0.4 3.9 0.3
v 0.5 3 0.3
v 0.5 3.1 0.3
v 0.5 3.7 0.3
v 0.5 3.8 0.3
v 0.6 3.1 0.3
v 0.6 3.2 0.3
v 0.6 3.6 0.3
v 0.6 3.7 0.3
v 0.7 3.2 0.3
v 0.7 3.6 0.3
v -0.3 3.2 -1.3
v -0.3 3.3 -1.3
v -0.3 3.5 -1.3
v -0.3 3.6 -1.3
v -0.1 3.2 -1.3
v -0.1 3.6 -1.3
v 0.3 3.2 -1.3
v 0.3 3.6 -1.3
v 0.5 3.2 -1.3
v 0.5 3.3 -1.3
v 0.5 3.5 -1.3
v 0.5 3.6 -1.3
v -0.5 3.2 0.2
v -0.5 3.3 0.2
v -0.5 3.5 0.2
v -0.5 3.6 0.2
v -0.4 3.1 0.2
v -0.4 3.2 0.2
v -0.4 3.3 0.2
v -0.4 3.5 0.2
v -0.4 3.6 0.2
v -0.4 3.7 0.2
v -0.3 3.1 0.2
v -0.3 3.2 0.2
v -0.3 3.3 0.2
v -0.3 3.5 0.2
v -0.3 3.6 0.2
v -0.3 3.7 0.2
v -0.2 2.9 0.2
v -0.2 3 0.2
v -0.2 3.8 0.2
v -0.2 3.9 0.2
v -0.1 2.8 0.2
v -0.1 2.9 0.2
v -0.1 3 0.2
v -0.1 3.2 0.2
v -0.1 3.6 0.2
v -0.1 3.8 0.2
v -0.1 3.9 0.2
v -0.1 4 0.2
v 0 2.8 0.2
v 0 2.9 0.2
v 0 3.9 0.2
v 0 4 0.2
v 0.2 2.8 0.2
v 0.2 2.9 0.2
v 0.2 3.9 0.2
v 0.2 4 0.2
v 0.3 2.8 0.2
v 0.3 2.9 0.2
v 0.3 3 0.2
v 0.3 3.2 0.2
v 0.3 3.6 0.2
v 0.3 3.8 0.2
v 0.3 3.9 0.2
v 0.3 4 0.2
v 0.4 2.9 0.2
v 0.4 3 0.2
v 0.4 3.8 0.2
v 0.4 3.9 0.2
v 0.5 3.1 0.2
v 0.5 3.2 0.2
v 0.5 3.3 0.2
v 0.5 3.5 0.2
v 0.5 3.6 0.2
v 0.5 3.7 0.2
v 0.6 3.1 0.2
v 0.6 3.2 0.2
v 0.6 3.3 0.2
v 0.6 3.5 0.2
v 0.6 3.6 0.2
v 0.6 3.7 0.2
v 0.7 3.2 0.2
v 0.7 3.3 0.2
v 0.7 3.5 0.2
v 0.7 3.6 0.2
v -0.4 3.2 -1.4
v -0.4 3.3 -1.4
v -0.4 3.5 -1.4
v -0.4 3.6 -1.4
v -0.3 3.2 -1.4
v -0.3 3.3 -1.4
v -0.3 3.5 -1.4
v -0.3 3.6 -1.4
v -0.1 2.9 -1.4
v -0.1 3 -1.4
v -0.1 3.2 -1.4
v -0.1 3.6 -1.4
v -0.1 3.8 -1.4
v -0.1 3.9 -1.4
v 0 2.9 -1.4
v 0 3 -1.4
v 0 3.3 -1.4
v 0 3.5 -1.4
v 0 3.8 -1.4
v 0 3.9 -1.4
v 0.2 2.9 -1.4
v 0.2 3 -1.4
v 0.2 3.3 -1.4
v 0.2 3.5 -1.4
v 0.2 3.8 -1.4
v 0.2 3.9 -1.4
v 0.3 2.9 -1.4
v 0.3 3 -1.4
v 0.3 3.2 -1.4
v 0.3 3.6 -1.4
v 0.3 3.8 -1.4
v 0.3 3.9 -1.4
v 0.5 3.2 -1.4
v 0.5 3.3 -1.4
v 0.5 3.5 -1.4
v 0.5 3.6 -1.4
v 0.6 3.2 -1.4
v 0.6 3.3 -1.4
v 0.6 3.5 -1.4
v 0.6 3.6 -1.4
v -0.3 3.3 -1.5
v -0.3 3.5 -1.5
v 0 3 -1.5
v 0 3.3 -1.5
v 0 3.5 -1.5
v 0 3.8 -1.5
v 0.2 3 -1.5
v 0.2 3.3 -1.5
v 0.2 3.5 -1.5
v 0.2 3.8 -1.5
v 0.5 3.3 -1.5
v 0.5 3.5 -1.5
v 0 3.3 -1.6
v 0 3.5 -1.6
v 0.2 3.3 -1.6
v 0.2 3.5 -1.6
v -0.5 3.3 -1.7
v -0.5 3.5 -1.7
v -0.3 3 -1.7
v -0.3 3.2 -1.7
v -0.3 3.3 -1.7
v -0.3 3.5 -1.7
v -0.3 3.6 -1.7
v -0.3 3.8 -1.7
v -0.1 3 -1.7
v -0.1 3.2 -1.7
v -0.1 3.6 -1.7
v -0.1 3.8 -1.7
v 0 2.8 -1.7
v 0 3 -1.7
v 0 3.8 -1.7
v 0 4 -1.7
v 0.2 2.8 -1.7
v 0.2 3 -1.7
v 0.2 3.8 -1.7
v 0.2 4 -1.7
v 0.3 3 -1.7
v 0.3 3.2 -1.7
v 0.3 3.6 -1.7
v 0.3 3.8 -1.7
v 0.5 3 -1.7
v 0.5 3.2 -1.7
v 0.5 3.3 -1.7
v 0.5 3.5 -1.7
v 0.5 3.6 -1.7
v 0.5 3.8 -1.7
v 0.7 3.3 -1.7
v 0.7 3.5 -1.7
v -0.1 2.8 0.3
v 0.3 2.8 0.3
v -0.1 2.8 0.2
v 0 2.8 0.2
v 0.2 2.8 0.2
v 0.3 2.8 0.2
v 0 2.8 -1.3
v 0.2 2.8 -1.3
v 0 2.8 -1.4
v 0.2 2.8 -1.4
v 0 2.8 -1.7
v 0.2 2.8 -1.7
v -0.2 2.9 0.3
v -0.1 2.9 0.3
v 0.3 2.9 0.3
v 0.4 2.9 0.3
v -0.2 2.9 0.2
v -0.1 2.9 0.2
v 0 2.9 0.2
v 0.2 2.9 0.2
v 0.3 2.9 0.2
v 0.4 2.9 0.2
v -0.1 2.9 -1.3
v 0 2.9 -1.3
v 0.2 2.9 -1.3
v 0.3 2.9 -1.3
v -0.1 2.9 -1.4
v 0 2.9 -1.4
v 0.2 2.9 -1.4
v 0.3 2.9 -1.4
v -0.3 3 0.3
v -0.2 3 0.3
v 0.4 3 0.3
v 0.5 3 0.3
v -0.3 3 0.2
v -0.2 3 0.2
v -0.1 3 0.2
v 0.3 3 0.2
v 0.4 3 0.2
v 0.5 3 0.2
v -0.3 3 -1.3
v -0.1 3 -1.3
v 0.3 3 -1.3
v 0.5 3 -1.3
v -0.3 3 -1.4
v -0.1 3 -1.4
v 0.3 3 -1.4
v 0.5 3 -1.4
v -0.3 3 -1.7
v -0.1 3 -1.7
v 0.3 3 -1.7
v 0.5 3 -1.7
v -0.4 3.1 0.3
v -0.3 3.1 0.3
v 0.5 3.1 0.3
v 0.6 3.1 0.3
v -0.4 3.1 0.2
v -0.3 3.1 0.2
v 0.5 3.1 0.2
v 0.6 3.1 0.2
v -0.5 3.2 0.3
v -0.4 3.2 0.3
v 0.6 3.2 0.3
v 0.7 3.2 0.3
v -0.5 3.2 0.2
v -0.4 3.2 0.2
v -0.3 3.2 0.2
v 0.5 3.2 0.2
v 0.6 3.2 0.2
v 0.7 3.2 0.2
v -0.4 3.2 -1.3
v -0.3 3.2 -1.3
v 0.5 3.2 -1.3
v 0.6 3.2 -1.3
v -0.4 3.2 -1.4
v -0.3 3.2 -1.4
v 0.5 3.2 -1.4
v 0.6 3.2 -1.4
v -0.5 3.3 0.2
v -0.4 3.3 0.2
v 0.6 3.3 0.2
v 0.7 3.3 0.2
v -0.5 3.3 -1.3
v -0.4 3.3 -1.3
v 0.6 3.3 -1.3
v 0.7 3.3 -1.3
v -0.5 3.3 -1.4
v -0.4 3.3 -1.4
v -0.3 3.3 -1.4
v 0 3.3 -1.4
v 0.2 3.3 -1.4
v 0.5 3.3 -1.4
v 0.6 3.3 -1.4
v 0.7 3.3 -1.4
v -0.3 3.3 -1.5
v 0 3.3 -1.5
v 0.2 3.3 -1.5
v 0.5 3.3 -1.5
v 0 3.3 -1.6
v 0.2 3.3 -1.6
v -0.5 3.3 -1.7
v -0.3 3.3 -1.7
v 0.5 3.3 -1.7
v 0.7 3.3 -1.7
v -0.3 3.6 0.2
v -0.1 3.6 0.2
v 0.3 3.6 0.2
v 0.5 3.6 0.2
v -0.3 3.6 -1.3
v -0.1 3.6 -1.3
v 0.3 3.6 -1.3
v 0.5 3.6 -1.3
v -0.3 3.6 -1.4
v -0.1 3.6 -1.4
v 0.3 3.6 -1.4
v 0.5 3.6 -1.4
v -0.3 3.6 -1.7
v -0.1 3.6 -1.7
v 0.3 3.6 -1.7
v 0.5 3.6 -1.7
v 0 3.8 -1.5
v 0.2 3.8 -1.5
v 0 3.8 -1.7
v 0.2 3.8 -1.7
v 0 3 -1.5
v 0.2 3 -1.5
v 0 3 -1.7
v 0.2 3 -1.7
v -0.3 3.2 0.2
v -0.1 3.2 0.2
v 0.3 3.2 0.2
v 0.5 3.2 0.2
v -0.3 3.2 -1.3
v -0.1 3.2 -1.3
v 0.3 3.2 -1.3
v 0.5 3.2 -1.3
v -0.3 3.2 -1.4
v -0.1 3.2 -1.4
v 0.3 3.2 -1.4
v 0.5 3.2 -1.4
v -0.3 3.2 -1.7
v -0.1 3.2 -1.7
v 0.3 3.2 -1.7
v 0.5 3.2 -1.7
v -0.5 3.5 0.2
v -0.4 3.5 0.2
v 0.6 3.5 0.2
v 0.7 3.5 0.2
v -0.5 3.5 -1.3
v -0.4 3.5 -1.3
v 0.6 3.5 -1.3
v 0.7 3.5 -1.3
v -0.5 3.5 -1.4
v -0.4 3.5 -1.4
v -0.3 3.5 -1.4
v 0 3.5 -1.4
v 0.2 3.5 -1.4
v 0.5 3.5 -1.4
v 0.6 3.5 -1.4
v 0.7 3.5 -1.4
v -0.3 3.5 -1.5
v 0 3.5 -1.5
v 0.2 3.5 -1.5
v 0.5 3.5 -1.5
v 0 3.5 -1.6
v 0.2 3.5 -1.6
v -0.5 3.5 -1.7
v -0.3 3.5 -1.7
v 0.5 3.5 -1.7
v 0.7 3.5 -1.7
v -0.5 3.6 0.3
v -0.4 3.6 0.3
v 0.6 3.6 0.3
v 0.7 3.6 0.3
v -0.5 3.6 0.2
v -0.4 3.6 0.2
v -0.3 3.6 0.2
v 0.5 3.6 0.2
v 0.6 3.6 0.2
v 0.7 3.6 0.2
v -0.4 3.6 -1.3
v -0.3 3.6 -1.3
v 0.5 3.6 -1.3
v 0.6 3.6 -1.3
v -0.4 3.6 -1.4
v -0.3 3.6 -1.4
v 0.5 3.6 -1.4
v 0.6 3.6 -1.4
v -0.4 3.7 0.3
v -0.3 3.7 0.3
v 0.5 3.7 0.3
v 0.6 3.7 0.3
v -0.4 3.7 0.2
v -0.3 3.7 0.2
v 0.5 3.7 0.2
v 0.6 3.7 0.2
v -0.3 3.8 0.3
v -0.2 3.8 0.3
v 0.4 3.8 0.3
v 0.5 3.8 0.3
v -0.3 3.8 0.2
v -0.2 3.8 0.2
v -0.1 3.8 0.2
v 0.3 3.8 0.2
v 0.4 3.8 0.2
v 0.5 3.8 0.2
v -0.3 3.8 -1.3
v -0.1 3.8 -1.3
v 0.3 3.8 -1.3
v 0.5 3.8 -1.3
v -0.3 3.8 -1.4
v -0.1 3.8 -1.4
v 0.3 3.8 -1.4
v 0.5 3.8 -1.4
v -0.3 3.8 -1.7
v -0.1 3.8 -1.7
v 0.3 3.8 -1.7
v 0.5 3.8 -1.7
v -0.2 3.9 0.3
v -0.1 3.9 0.3
v 0.3 3.9 0.3
v 0.4 3.9 0.3
v -0.2 3.9 0.2
v -0.1 3.9 0.2
v 0 3.9 0.2
v 0.2 3.9 0.2
v 0.3 3.9 0.2
v 0.4 3.9 0.2
v -0.1 3.9 -1.3
v 0 3.9 -1.3
v 0.2 3.9 -1.3
v 0.3 3.9 -1.3
v -0.1 3.9 -1.4
v 0 3.9 -1.4
v 0.2 3.9 -1.4
v 0.3 3.9 -1.4
v -0.1 4 0.3
v 0.3 4 0.3
v -0.1 4 0.2
v 0 4 0.2
v 0.2 4 0.2
v 0.3 4 0.2
v 0 4 -1.3
v 0.2 4 -1.3
v 0 4 -1.4
v 0.2 4 -1.4
v 0 4 -1.7
v 0.2 4 -1.7

# faces
f 3/3/1 2/3/1 1/3/1
f 7/3/1 3/3/1 1/3/1
f 7/2/1 4/2/1 3/2/1
f 8/1/1 5/1/1 4/1/1
f 8/2/1 4/2/1 7/2/1
f 9/2/1 6/2/1 5/2/1
f 9/1/1 5/1/1 8/1/1
f 10/2/1 6/2/1 9/2/1
f 11/3/1 7/3/1 1/3/1
f 12/3/1 7/3/1 11/3/1
f 15/3/1 14/3/1 13/3/1
f 16/3/1 14/3/1 15/3/1
f 19/3/1 17/3/1 16/3/1
f 20/1/1 18/1/1 17/1/1
f 20/3/1 17/3/1 19/3/1
f 21/1/1 18/1/1 20/1/1
f 26/3/1 23/3/1 22/3/1
f 27/1/1 24/1/1 23/1/1
f 27/3/1 23/3/1 26/3/1
f 28/1/1 24/1/1 27/1/1
f 29/3/1 26/3/1 25/3/1
f 30/3/1 26/3/1 29/3/1
f 36/3/1 32/3/1 31/3/1
f 37/2/1 33/2/1 32/2/1
f 37/3/1 32/3/1 36/3/1
f 38/2/1 33/2/1 37/2/1
f 39/1/1 34/1/1 33/1/1
f 39/2/1 33/2/1 38/2/1
f 40/2/1 35/2/1 34/2/1
f 40/1/1 34/1/1 39/1/1
f 41/2/1 35/2/1 40/2/1
f 47/2/1 43/2/1 42/2/1
f 48/3/1 47/3/1 46/3/1
f 49/2/1 43/2/1 47/2/1
f 49/3/1 47/3/1 48/3/1
f 50/1/1 44/1/1 43/1/1
f 50/2/1 43/2/1 49/2/1
f 51/2/1 45/2/1 44/2/1
f 51/1/1 44/1/1 50/1/1
f 52/2/1 45/2/1 51/2/1
f 55/3/1 54/3/1 53/3/1
f 56/3/1 54/3/1 55/3/1
f 59/3/1 58/3/1 57/3/1
f 60/3/1 58/3/1 59/3/1
f 63/3/1 62/3/1 61/3/1
f 64/3/1 62/3/1 63/3/1
f 67/3/1 65/3/1 64/3/1
f 68/1/1 66/1/1 65/1/1
f 68/3/1 65/3/1 67/3/1
f 69/1/1 66/1/1 68/1/1
f 72/4/1 71/4/1 70/4/1
f 73/4/1 71/4/1 72/4/1
f 78/3/1 75/3/1 74/3/1
f 79/1/1 76/1/1 75/1/1
f 79/3/1 75/3/1 78/3/1
f 80/1/1 76/1/1 79/1/1
f 81/3/1 78/3/1 77/3/1
f 82/3/1 78/3/1 81/3/1
f 87/2/1 84/2/1 83/2/1
f 88/1/1 85/1/1 84/1/1
f 88/2/1 84/2/1 87/2/1
f 89/2/1 86/2/1 85/2/1
f 89/1/1 85/1/1 88/1/1
f 90/2/1 86/2/1 89/2/1
f 91/2/1 86/2/1 90/2/1
f 92/2/1 86/2/1 91/2/1
f 93/3/1 91/3/1 90/3/1
f 94/3/1 91/3/1 93/3/1
f 97/2/1 95/2/1 94/2/1
f 98/2/1 95/2/1 97/2/1
f 99/3/1 97/3/1 96/3/1
f 100/3/1 97/3/1 99/3/1
f 104/2/1 100/2/1 99/2/1
f 104/2/1 101/2/1 100/2/1
f 105/2/1 103/2/1 102/2/1
f 106/1/1 104/1/1 103/1/1
f 106/2/1 103/2/1 105/2/1
f 107/2/1 101/2/1 104/2/1
f 107/1/1 104/1/1 106/1/1
f 108/2/1 101/2/1 107/2/1
f 111/2/1 110/2/1 109/2/1
f 112/2/1 110/2/1 111/2/1
f 115/2/1 114/2/1 113/2/1
f 116/2/1 114/2/1 115/2/1
f 119/3/1 118/3/1 117/3/1
f 120/3/1 118/3/1 119/3/1
f 123/2/1 120/2/1 119/2/1
f 124/2/1 120/2/1 123/2/1
f 125/2/1 122/2/1 121/2/1
f 126/2/1 122/2/1 125/2/1
f 127/3/1 124/3/1 123/3/1
f 128/3/1 124/3/1 127/3/1
f 129/3/2 130/3/2 131/3/2
f 131/3/2 130/3/2 132/3/2
f 131/2/2 132/2/2 135/2/2
f 135/2/2 132/2/2 136/2/2
f 133/2/2 134/2/2 137/2/2
f 137/2/2 134/2/2 138/2/2
f 135/3/2 136/3/2 139/3/2
f 139/3/2 136/3/2 140/3/2
f 141/2/2 142/2/2 143/2/2
f 143/2/2 142/2/2 144/2/2
f 145/2/2 146/2/2 147/2/2
f 147/2/2 146/2/2 148/2/2
f 149/2/2 150/2/2 153/2/2
f 150/1/2 151/1/2 154/1/2
f 153/2/2 150/2/2 154/2/2
f 151/2/2 152/2/2 155/2/2
f 154/1/2 151/1/2 155/1/2
f 155/2/2 152/2/2 156/2/2
f 156/2/2 152/2/2 157/2/2
f 157/2/2 152/2/2 158/2/2
f 156/3/2 157/3/2 159/3/2
f 159/3/2 157/3/2 160/3/2
f 160/2/2 161/2/2 163/2/2
f 163/2/2 161/2/2 164/2/2
f 162/3/2 163/3/2 165/3/2
f 165/3/2 163/3/2 166/3/2
f 165/2/2 166/2/2 170/2/2
f 166/2/2 167/2/2 170/2/2
f 168/2/2 169/2/2 171/2/2
f 169/1/2 170/1/2 172/1/2
f 171/2/2 169/2/2 172/2/2
f 170/2/2 167/2/2 173/2/2
f 172/1/2 170/1/2 173/1/2
f 173/2/2 167/2/2 174/2/2
f 175/3/2 176/3/2 177/3/2
f 177/3/2 176/3/2 178/3/2
f 178/3/2 179/3/2 181/3/2
f 179/1/2 180/1/2 182/1/2
f 181/3/2 179/3/2 182/3/2
f 182/1/2 180/1/2 183/1/2
f 184/4/2 185/4/2 186/4/2
f 186/4/2 185/4/2 187/4/2
f 188/3/2 189/3/2 192/3/2
f 189/1/2 190/1/2 193/1/2
f 192/3/2 189/3/2 193/3/2
f 193/1/2 190/1/2 194/1/2
f 191/3/2 192/3/2 195/3/2
f 195/3/2 192/3/2 196/3/2
f 197/3/2 198/3/2 199/3/2
f 199/3/2 198/3/2 200/3/2
f 201/3/2 202/3/2 203/3/2
f 203/3/2 202/3/2 204/3/2
f 205/3/2 206/3/2 210/3/2
f 206/2/2 207/2/2 211/2/2
f 210/3/2 206/3/2 211/3/2
f 211/2/2 207/2/2 212/2/2
f 207/1/2 208/1/2 213/1/2
f 212/2/2 207/2/2 213/2/2
f 208/2/2 209/2/2 214/2/2
f 213/1/2 208/1/2 214/1/2
f 214/2/2 209/2/2 215/2/2
f 216/2/2 217/2/2 221/2/2
f 220/3/2 221/3/2 222/3/2
f 221/2/2 217/2/2 223/2/2
f 222/3/2 221/3/2 223/3/2
f 217/1/2 218/1/2 224/1/2
f 223/2/2 217/2/2 224/2/2
f 218/2/2 219/2/2 225/2/2
f 224/1/2 218/1/2 225/1/2
f 225/2/2 219/2/2 226/2/2
f 227/3/2 228/3/2 229/3/2
f 229/3/2 228/3/2 230/3/2
f 230/3/2 231/3/2 233/3/2
f 231/1/2 232/1/2 234/1/2
f 233/3/2 231/3/2 234/3/2
f 234/1/2 232/1/2 235/1/2
f 236/3/2 237/3/2 240/3/2
f 237/1/2 238/1/2 241/1/2
f 240/3/2 237/3/2 241/3/2
f 241/1/2 238/1/2 242/1/2
f 239/3/2 240/3/2 243/3/2
f 243/3/2 240/3/2 244/3/2
f 245/3/2 246/3/2 247/3/2
f 245/3/2 247/3/2 251/3/2
f 247/2/2 248/2/2 251/2/2
f 248/1/2 249/1/2 252/1/2
f 251/2/2 248/2/2 252/2/2
f 249/2/2 250/2/2 253/2/2
f 252/1/2 249/1/2 253/1/2
f 253/2/2 250/2/2 254/2/2
f 245/3/2 251/3/2 255/3/2
f 255/3/2 251/3/2 256/3/2
f 260/3/3 258/3/3 257/3/3
f 261/3/3 258/3/3 260/3/3
f 264/3/3 260/3/3 259/3/3
f 264/3/3 262/3/3 261/3/3
f 264/3/3 261/3/3 260/3/3
f 265/3/3 262/3/3 264/3/3
f 268/3/3 264/3/3 263/3/3
f 268/3/3 266/3/3 265/3/3
f 268/3/3 265/3/3 264/3/3
f 269/3/3 266/3/3 268/3/3
f 272/3/3 268/3/3 267/3/3
f 272/3/3 270/3/3 269/3/3
f 272/3/3 269/3/3 268/3/3
f 273/3/3 270/3/3 272/3/3
f 275/3/3 272/3/3 271/3/3
f 275/3/3 274/3/3 273/3/3
f 275/3/3 273/3/3 272/3/3
f 276/3/3 274/3/3 275/3/3
f 277/3/3 274/3/3 276/3/3
f 278/3/3 274/3/3 277/3/3
f 279/3/3 277/3/3 276/3/3
f 280/3/3 277/3/3 279/3/3
f 281/3/3 277/3/3 280/3/3
f 282/3/3 277/3/3 281/3/3
f 283/3/3 281/3/3 280/3/3
f 284/3/3 281/3/3 283/3/3
f 285/3/3 281/3/3 284/3/3
f 286/3/3 281/3/3 285/3/3
f 287/3/3 285/3/3 284/3/3
f 288/3/3 285/3/3 287/3/3
f 289/3/3 285/3/3 288/3/3
f 290/3/3 285/3/3 289/3/3
f 291/3/3 289/3/3 288/3/3
f 292/3/3 289/3/3 291/3/3
f 297/4/3 294/4/3 293/4/3
f 297/4/3 296/4/3 295/4/3
f 297/4/3 295/4/3 294/4/3
f 298/4/3 296/4/3 297/4/3
f 301/4/3 300/4/3 299/4/3
f 302/4/3 300/4/3 301/4/3
f 303/4/3 300/4/3 302/4/3
f 304/4/3 300/4/3 303/4/3
f 305/3/4 306/3/4 310/3/4
f 310/3/4 306/3/4 311/3/4
f 307/3/4 308/3/4 312/3/4
f 312/3/4 308/3/4 313/3/4
f 309/3/4 310/3/4 315/3/4
f 315/3/4 310/3/4 316/3/4
f 313/3/4 314/3/4 319/3/4
f 319/3/4 314/3/4 320/3/4
f 321/3/4 322/3/4 326/3/4
f 326/3/4 322/3/4 327/3/4
f 317/3/4 318/3/4 328/3/4
f 316/3/4 317/3/4 328/3/4
f 318/3/4 319/3/4 328/3/4
f 328/3/4 319/3/4 329/3/4
f 323/3/4 324/3/4 330/3/4
f 330/3/4 324/3/4 331/3/4
f 325/3/4 326/3/4 333/3/4
f 333/3/4 326/3/4 334/3/4
f 331/3/4 332/3/4 335/3/4
f 335/3/4 332/3/4 336/3/4
f 337/3/4 338/3/4 341/3/4
f 341/3/4 338/3/4 342/3/4
f 339/3/4 340/3/4 347/3/4
f 347/3/4 340/3/4 348/3/4
f 342/3/4 343/3/4 349/3/4
f 349/3/4 343/3/4 350/3/4
f 346/3/4 347/3/4 351/3/4
f 351/3/4 347/3/4 352/3/4
f 344/3/4 345/3/4 354/3/4
f 354/3/4 345/3/4 355/3/4
f 355/3/4 345/3/4 356/3/4
f 356/3/4 345/3/4 357/3/4
f 353/3/4 354/3/4 359/3/4
f 359/3/4 354/3/4 360/3/4
f 357/3/4 358/3/4 363/3/4
f 363/3/4 358/3/4 364/3/4
f 360/3/4 361/3/4 365/3/4
f 365/3/4 361/3/4 366/3/4
f 362/3/4 363/3/4 367/3/4
f 367/3/4 363/3/4 368/3/4
f 369/1/4 370/1/4 373/1/4
f 373/1/4 370/1/4 374/1/4
f 371/1/4 372/1/4 375/1/4
f 375/1/4 372/1/4 376/1/4
f 373/4/4 374/4/4 379/4/4
f 375/4/4 376/4/4 380/4/4
f 377/1/4 378/1/4 383/1/4
f 378/4/4 379/4/4 384/4/4
f 383/1/4 378/1/4 384/1/4
f 379/4/4 374/4/4 385/4/4
f 384/4/4 379/4/4 385/4/4
f 375/4/4 380/4/4 386/4/4
f 380/4/4 381/4/4 386/4/4
f 381/1/4 382/1/4 387/1/4
f 386/4/4 381/4/4 387/4/4
f 387/1/4 382/1/4 388/1/4
f 389/1/4 390/1/4 395/1/4
f 390/4/4 391/4/4 396/4/4
f 395/1/4 390/1/4 396/1/4
f 396/4/4 391/4/4 397/4/4
f 392/4/4 393/4/4 398/4/4
f 393/1/4 394/1/4 399/1/4
f 398/4/4 393/4/4 399/4/4
f 399/1/4 394/1/4 400/1/4
f 397/4/4 391/4/4 401/4/4
f 401/4/4 391/4/4 402/4/4
f 392/4/4 398/4/4 403/4/4
f 403/4/4 398/4/4 404/4/4
f 401/1/4 402/1/4 405/1/4
f 405/1/4 402/1/4 406/1/4
f 403/1/4 404/1/4 407/1/4
f 407/1/4 404/1/4 408/1/4
f 409/3/4 410/3/4 412/3/4
f 412/3/4 410/3/4 413/3/4
f 411/3/4 412/3/4 415/3/4
f 415/3/4 412/3/4 416/3/4
f 413/3/4 414/3/4 417/3/4
f 417/3/4 414/3/4 418/3/4
f 416/3/4 417/3/4 419/3/4
f 419/3/4 417/3/4 420/3/4
f 421/2/4 422/2/4 423/2/4
f 423/2/4 422/2/4 424/2/4
f 425/2/4 426/2/4 429/2/4
f 429/2/4 426/2/4 430/2/4
f 427/2/4 428/2/4 433/2/4
f 433/2/4 428/2/4 434/2/4
f 431/2/4 432/2/4 435/2/4
f 435/2/4 432/2/4 436/2/4
f 437/2/4 438/2/4 441/2/4
f 441/2/4 438/2/4 442/2/4
f 439/2/4 440/2/4 443/2/4
f 443/2/4 440/2/4 444/2/4
f 445/2/4 446/2/4 449/2/4
f 449/2/4 446/2/4 450/2/4
f 447/2/4 448/2/4 453/2/4
f 453/2/4 448/2/4 454/2/4
f 451/2/4 452/2/4 455/2/4
f 455/2/4 452/2/4 456/2/4
f 459/3/5 458/3/5 457/3/5
f 460/3/5 458/3/5 459/3/5
f 461/3/5 458/3/5 460/3/5
f 462/3/5 458/3/5 461/3/5
f 463/2/5 461/2/5 460/2/5
f 464/2/5 461/2/5 463/2/5
f 465/1/5 464/1/5 463/1/5
f 466/1/5 464/1/5 465/1/5
f 467/2/5 466/2/5 465/2/5
f 468/2/5 466/2/5 467/2/5
f 473/3/5 470/3/5 469/3/5
f 474/3/5 470/3/5 473/3/5
f 477/3/5 472/3/5 471/3/5
f 478/3/5 472/3/5 477/3/5
f 479/3/5 475/3/5 474/3/5
f 480/3/5 475/3/5 479/3/5
f 481/3/5 477/3/5 476/3/5
f 482/3/5 477/3/5 481/3/5
f 483/1/5 480/1/5 479/1/5
f 484/1/5 480/1/5 483/1/5
f 485/1/5 482/1/5 481/1/5
f 486/1/5 482/1/5 485/1/5
f 491/3/5 488/3/5 487/3/5
f 492/3/5 488/3/5 491/3/5
f 495/3/5 490/3/5 489/3/5
f 496/3/5 490/3/5 495/3/5
f 497/2/5 493/2/5 492/2/5
f 497/2/5 492/2/5 491/2/5
f 498/2/5 493/2/5 497/2/5
f 499/2/5 496/2/5 495/2/5
f 499/2/5 495/2/5 494/2/5
f 500/2/5 496/2/5 499/2/5
f 501/1/5 498/1/5 497/1/5
f 502/1/5 498/1/5 501/1/5
f 503/1/5 500/1/5 499/1/5
f 504/1/5 500/1/5 503/1/5
f 505/2/5 502/2/5 501/2/5
f 506/2/5 502/2/5 505/2/5
f 507/2/5 504/2/5 503/2/5
f 508/2/5 504/2/5 507/2/5
f 513/3/5 510/3/5 509/3/5
f 514/3/5 510/3/5 513/3/5
f 515/3/5 512/3/5 511/3/5
f 516/3/5 512/3/5 515/3/5
f 521/3/5 518/3/5 517/3/5
f 522/3/5 518/3/5 521/3/5
f 525/3/5 520/3/5 519/3/5
f 526/3/5 520/3/5 525/3/5
f 527/3/5 523/3/5 522/3/5
f 528/3/5 523/3/5 527/3/5
f 529/3/5 525/3/5 524/3/5
f 530/3/5 525/3/5 529/3/5
f 531/1/5 528/1/5 527/1/5
f 532/1/5 528/1/5 531/1/5
f 533/1/5 530/1/5 529/1/5
f 534/1/5 530/1/5 533/1/5
f 539/2/5 536/2/5 535/2/5
f 540/2/5 536/2/5 539/2/5
f 541/2/5 538/2/5 537/2/5
f 542/2/5 538/2/5 541/2/5
f 543/1/5 540/1/5 539/1/5
f 544/1/5 540/1/5 543/1/5
f 549/1/5 542/1/5 541/1/5
f 550/1/5 542/1/5 549/1/5
f 551/2/5 544/2/5 543/2/5
f 551/2/5 545/2/5 544/2/5
f 551/3/5 546/3/5 545/3/5
f 552/3/5 546/3/5 551/3/5
f 553/3/5 548/3/5 547/3/5
f 554/2/5 550/2/5 549/2/5
f 554/2/5 549/2/5 548/2/5
f 554/3/5 548/3/5 553/3/5
f 555/2/5 553/2/5 552/2/5
f 556/2/5 553/2/5 555/2/5
f 557/2/5 551/2/5 543/2/5
f 558/2/5 551/2/5 557/2/5
f 559/2/5 550/2/5 554/2/5
f 560/2/5 550/2/5 559/2/5
f 565/2/5 562/2/5 561/2/5
f 566/2/5 562/2/5 565/2/5
f 567/2/5 564/2/5 563/2/5
f 568/2/5 564/2/5 567/2/5
f 573/2/5 570/2/5 569/2/5
f 574/2/5 570/2/5 573/2/5
f 575/2/5 572/2/5 571/2/5
f 576/2/5 572/2/5 575/2/5
f 579/2/5 578/2/5 577/2/5
f 580/2/5 578/2/5 579/2/5
f 581/2/6 582/2/6 583/2/6
f 583/2/6 582/2/6 584/2/6
f 585/2/6 586/2/6 589/2/6
f 589/2/6 586/2/6 590/2/6
f 587/2/6 588/2/6 591/2/6
f 591/2/6 588/2/6 592/2/6
f 593/2/6 594/2/6 597/2/6
f 597/2/6 594/2/6 598/2/6
f 595/2/6 596/2/6 599/2/6
f 599/2/6 596/2/6 600/2/6
f 601/2/6 602/2/6 605/2/6
f 605/2/6 602/2/6 606/2/6
f 603/2/6 604/2/6 607/2/6
f 607/2/6 604/2/6 608/2/6
f 605/1/6 606/1/6 609/1/6
f 609/1/6 606/1/6 610/1/6
f 607/1/6 608/1/6 615/1/6
f 615/1/6 608/1/6 616/1/6
f 609/2/6 610/2/6 617/2/6
f 610/2/6 611/2/6 617/2/6
f 611/3/6 612/3/6 617/3/6
f 617/3/6 612/3/6 618/3/6
f 613/3/6 614/3/6 619/3/6
f 615/2/6 616/2/6 620/2/6
f 614/2/6 615/2/6 620/2/6
f 619/3/6 614/3/6 620/3/6
f 618/2/6 619/2/6 621/2/6
f 621/2/6 619/2/6 622/2/6
f 609/2/6 617/2/6 623/2/6
f 623/2/6 617/2/6 624/2/6
f 620/2/6 616/2/6 625/2/6
f 625/2/6 616/2/6 626/2/6
f 627/3/6 628/3/6 631/3/6
f 631/3/6 628/3/6 632/3/6
f 629/3/6 630/3/6 635/3/6
f 635/3/6 630/3/6 636/3/6
f 632/3/6 633/3/6 637/3/6
f 637/3/6 633/3/6 638/3/6
f 634/3/6 635/3/6 639/3/6
f 639/3/6 635/3/6 640/3/6
f 637/1/6 638/1/6 641/1/6
f 641/1/6 638/1/6 642/1/6
f 639/1/6 640/1/6 643/1/6
f 643/1/6 640/1/6 644/1/6
f 645/3/6 646/3/6 649/3/6
f 649/3/6 646/3/6 650/3/6
f 647/3/6 648/3/6 651/3/6
f 651/3/6 648/3/6 652/3/6
f 653/3/6 654/3/6 657/3/6
f 657/3/6 654/3/6 658/3/6
f 655/3/6 656/3/6 661/3/6
f 661/3/6 656/3/6 662/3/6
f 658/2/6 659/2/6 663/2/6
f 657/2/6 658/2/6 663/2/6
f 663/2/6 659/2/6 664/2/6
f 661/2/6 662/2/6 665/2/6
f 660/2/6 661/2/6 665/2/6
f 665/2/6 662/2/6 666/2/6
f 663/1/6 664/1/6 667/1/6
f 667/1/6 664/1/6 668/1/6
f 665/1/6 666/1/6 669/1/6
f 669/1/6 666/1/6 670/1/6
f 667/2/6 668/2/6 671/2/6
f 671/2/6 668/2/6 672/2/6
f 669/2/6 670/2/6 673/2/6
f 673/2/6 670/2/6 674/2/6
f 675/3/6 676/3/6 679/3/6
f 679/3/6 676/3/6 680/3/6
f 677/3/6 678/3/6 683/3/6
f 683/3/6 678/3/6 684/3/6
f 680/3/6 681/3/6 685/3/6
f 685/3/6 681/3/6 686/3/6
f 682/3/6 683/3/6 687/3/6
f 687/3/6 683/3/6 688/3/6
f 685/1/6 686/1/6 689/1/6
f 689/1/6 686/1/6 690/1/6
f 687/1/6 688/1/6 691/1/6
f 691/1/6 688/1/6 692/1/6
f 693/3/6 694/3/6 695/3/6
f 695/3/6 694/3/6 696/3/6
f 696/3/6 694/3/6 697/3/6
f 697/3/6 694/3/6 698/3/6
f 696/2/6 697/2/6 699/2/6
f 699/2/6 697/2/6 700/2/6
f 699/1/6 700/1/6 701/1/6
f 701/1/6 700/1/6 702/1/6
f 701/2/6 702/2/6 703/2/6
f 703/2/6 702/2/6 704/2/6
