# MagicaVoxel @ Ephtracy

# group
o 

# material
mtllib horse leg 2.mtl
usemtl palette

# normals
vn -1 0 0
vn 1 0 0
vn 0 0 1
vn 0 0 -1
vn 0 -1 0
vn 0 1 0

# texcoords
vt 0.369141 0.5
vt 0.537109 0.5
vt 0.994141 0.5

# verts
v -0.4 0 0.4
v -0.4 0 -0.4
v -0.4 0.5 0.4
v -0.4 0.5 -0.4
v -0.3 0.5 0.3
v -0.3 0.5 -0.3
v -0.3 1.4 -0.1
v -0.3 1.4 -0.2
v -0.3 1.5 0
v -0.3 1.5 -0.1
v -0.3 1.7 0
v -0.3 1.7 -0.1
v -0.3 1.9 -0.1
v -0.3 1.9 -0.2
v -0.3 2.4 0.2
v -0.3 2.4 0.1
v -0.3 2.5 0.2
v -0.3 2.5 0.1
v -0.3 2.5 0
v -0.3 2.9 0.1
v -0.3 2.9 0
v -0.3 3.3 0.3
v -0.3 3.3 -0.3
v 0.3 0.5 0.3
v 0.3 0.5 -0.3
v 0.3 1.4 -0.1
v 0.3 1.4 -0.2
v 0.3 1.5 0
v 0.3 1.5 -0.1
v 0.3 1.7 0
v 0.3 1.7 -0.1
v 0.3 1.9 -0.1
v 0.3 1.9 -0.2
v 0.3 2.4 0.2
v 0.3 2.4 0.1
v 0.3 2.5 0.2
v 0.3 2.5 0.1
v 0.3 2.5 0
v 0.3 2.8 -0.2
v 0.3 2.8 -0.3
v 0.3 2.9 0.1
v 0.3 2.9 0
v 0.3 2.9 -0.2
v 0.3 2.9 -0.3
v 0.3 3.3 0.3
v 0.3 3.3 -0.3
v 0.4 0 0.4
v 0.4 0 -0.4
v 0.4 0.5 0.4
v 0.4 0.5 -0.4
v -0.4 0 0.4
v -0.4 0.5 0.4
v 0.4 0 0.4
v 0.4 0.5 0.4
v -0.3 0.5 0.3
v -0.3 3.3 0.3
v -0.2 1.2 0.3
v -0.2 1.4 0.3
v -0.2 1.8 0.3
v -0.2 2 0.3
v -0.2 2.6 0.3
v -0.2 2.8 0.3
v -0.1 1.3 0.3
v -0.1 1.4 0.3
v -0.1 1.6 0.3
v -0.1 1.8 0.3
v -0.1 2 0.3
v -0.1 2.6 0.3
v -0.1 2.7 0.3
v -0.1 3.1 0.3
v -0.1 3.3 0.3
v 0.1 1.2 0.3
v 0.1 1.3 0.3
v 0.1 1.6 0.3
v 0.1 1.8 0.3
v 0.1 1.9 0.3
v 0.1 2 0.3
v 0.1 2.6 0.3
v 0.1 2.7 0.3
v 0.1 3.1 0.3
v 0.1 3.3 0.3
v 0.2 1.9 0.3
v 0.2 2 0.3
v 0.2 2.6 0.3
v 0.2 2.8 0.3
v 0.3 0.5 0.3
v 0.3 3.3 0.3
v -0.3 0.5 -0.3
v -0.3 3.3 -0.3
v -0.2 1.8 -0.3
v -0.2 2.1 -0.3
v -0.1 0.7 -0.3
v -0.1 0.8 -0.3
v -0.1 1.1 -0.3
v -0.1 1.2 -0.3
v -0.1 1.7 -0.3
v -0.1 1.8 -0.3
v -0.1 3.1 -0.3
v -0.1 3.3 -0.3
v 0 0.8 -0.3
v 0 0.9 -0.3
v 0 1.1 -0.3
v 0 1.2 -0.3
v 0 1.3 -0.3
v 0 1.7 -0.3
v 0 2.1 -0.3
v 0 2.5 -0.3
v 0 2.6 -0.3
v 0 2.7 -0.3
v 0 2.8 -0.3
v 0 3.1 -0.3
v 0 3.3 -0.3
v 0.1 0.7 -0.3
v 0.1 0.9 -0.3
v 0.1 1.2 -0.3
v 0.1 1.3 -0.3
v 0.1 2.3 -0.3
v 0.1 2.4 -0.3
v 0.1 2.5 -0.3
v 0.1 2.6 -0.3
v 0.2 2.3 -0.3
v 0.2 2.4 -0.3
v 0.2 2.7 -0.3
v 0.2 2.8 -0.3
v 0.2 2.9 -0.3
v 0.3 0.5 -0.3
v 0.3 2.8 -0.3
v 0.3 2.9 -0.3
v 0.3 3.3 -0.3
v -0.4 0 -0.4
v -0.4 0.5 -0.4
v 0.4 0 -0.4
v 0.4 0.5 -0.4
v -0.4 0 0.4
v 0.4 0 0.4
v -0.4 0 -0.4
v 0.4 0 -0.4
v -0.4 0.5 0.4
v 0.4 0.5 0.4
v -0.3 0.5 0.3
v 0.3 0.5 0.3
v -0.3 0.5 -0.3
v 0.3 0.5 -0.3
v -0.4 0.5 -0.4
v 0.4 0.5 -0.4
v -0.3 3.3 0.3
v -0.1 3.3 0.3
v 0.1 3.3 0.3
v 0.3 3.3 0.3
v -0.1 3.3 0.2
v 0.1 3.3 0.2
v -0.1 3.3 -0.2
v 0 3.3 -0.2
v -0.3 3.3 -0.3
v -0.1 3.3 -0.3
v 0 3.3 -0.3
v 0.3 3.3 -0.3

# faces
f 3/3/1 2/3/1 1/3/1
f 4/3/1 2/3/1 3/3/1
f 7/2/1 6/2/1 5/2/1
f 8/2/1 6/2/1 7/2/1
f 9/2/1 7/2/1 5/2/1
f 10/1/1 8/1/1 7/1/1
f 10/2/1 7/2/1 9/2/1
f 11/2/1 9/2/1 5/2/1
f 11/1/1 10/1/1 9/1/1
f 12/1/1 8/1/1 10/1/1
f 12/1/1 10/1/1 11/1/1
f 13/2/1 12/2/1 11/2/1
f 13/1/1 8/1/1 12/1/1
f 14/2/1 6/2/1 8/2/1
f 14/1/1 8/1/1 13/1/1
f 15/2/1 13/2/1 11/2/1
f 15/2/1 11/2/1 5/2/1
f 15/2/1 14/2/1 13/2/1
f 16/2/1 14/2/1 15/2/1
f 17/2/1 15/2/1 5/2/1
f 17/1/1 16/1/1 15/1/1
f 18/2/1 14/2/1 16/2/1
f 18/1/1 16/1/1 17/1/1
f 19/2/1 14/2/1 18/2/1
f 20/2/1 18/2/1 17/2/1
f 20/1/1 19/1/1 18/1/1
f 21/2/1 14/2/1 19/2/1
f 21/1/1 19/1/1 20/1/1
f 22/2/1 17/2/1 5/2/1
f 22/2/1 20/2/1 17/2/1
f 22/2/1 21/2/1 20/2/1
f 23/2/1 6/2/1 14/2/1
f 23/2/1 21/2/1 22/2/1
f 23/2/1 14/2/1 21/2/1
f 24/2/2 25/2/2 26/2/2
f 26/2/2 25/2/2 27/2/2
f 24/2/2 26/2/2 28/2/2
f 26/1/2 27/1/2 29/1/2
f 28/2/2 26/2/2 29/2/2
f 24/2/2 28/2/2 30/2/2
f 28/1/2 29/1/2 30/1/2
f 29/1/2 27/1/2 31/1/2
f 30/1/2 29/1/2 31/1/2
f 30/2/2 31/2/2 32/2/2
f 31/1/2 27/1/2 32/1/2
f 27/2/2 25/2/2 33/2/2
f 32/1/2 27/1/2 33/1/2
f 30/2/2 32/2/2 34/2/2
f 24/2/2 30/2/2 34/2/2
f 32/2/2 33/2/2 34/2/2
f 34/2/2 33/2/2 35/2/2
f 24/2/2 34/2/2 36/2/2
f 34/1/2 35/1/2 36/1/2
f 35/2/2 33/2/2 37/2/2
f 36/1/2 35/1/2 37/1/2
f 37/2/2 33/2/2 38/2/2
f 33/2/2 25/2/2 39/2/2
f 38/2/2 33/2/2 39/2/2
f 39/2/2 25/2/2 40/2/2
f 37/1/2 38/1/2 41/1/2
f 36/2/2 37/2/2 41/2/2
f 38/2/2 39/2/2 42/2/2
f 41/1/2 38/1/2 42/1/2
f 39/1/2 40/1/2 43/1/2
f 42/2/2 39/2/2 43/2/2
f 43/1/2 40/1/2 44/1/2
f 24/2/2 36/2/2 45/2/2
f 41/2/2 42/2/2 45/2/2
f 43/2/2 44/2/2 45/2/2
f 42/2/2 43/2/2 45/2/2
f 36/2/2 41/2/2 45/2/2
f 45/2/2 44/2/2 46/2/2
f 47/3/2 48/3/2 49/3/2
f 49/3/2 48/3/2 50/3/2
f 53/3/3 52/3/3 51/3/3
f 54/3/3 52/3/3 53/3/3
f 57/2/3 56/2/3 55/2/3
f 58/2/3 56/2/3 57/2/3
f 59/2/3 56/2/3 58/2/3
f 60/2/3 56/2/3 59/2/3
f 61/2/3 56/2/3 60/2/3
f 62/2/3 56/2/3 61/2/3
f 63/1/3 58/1/3 57/1/3
f 64/2/3 59/2/3 58/2/3
f 64/1/3 58/1/3 63/1/3
f 65/2/3 59/2/3 64/2/3
f 66/1/3 60/1/3 59/1/3
f 66/2/3 59/2/3 65/2/3
f 67/2/3 61/2/3 60/2/3
f 67/1/3 60/1/3 66/1/3
f 68/1/3 62/1/3 61/1/3
f 68/2/3 61/2/3 67/2/3
f 69/1/3 62/1/3 68/1/3
f 70/2/3 56/2/3 62/2/3
f 71/2/3 56/2/3 70/2/3
f 72/2/3 57/2/3 55/2/3
f 72/1/3 63/1/3 57/1/3
f 73/2/3 65/2/3 64/2/3
f 73/1/3 63/1/3 72/1/3
f 73/2/3 64/2/3 63/2/3
f 74/1/3 66/1/3 65/1/3
f 74/2/3 65/2/3 73/2/3
f 75/2/3 67/2/3 66/2/3
f 75/1/3 66/1/3 74/1/3
f 75/2/3 68/2/3 67/2/3
f 75/2/3 69/2/3 68/2/3
f 76/2/3 69/2/3 75/2/3
f 77/2/3 69/2/3 76/2/3
f 78/2/3 69/2/3 77/2/3
f 79/1/3 62/1/3 69/1/3
f 79/2/3 69/2/3 78/2/3
f 80/1/3 71/1/3 70/1/3
f 80/2/3 70/2/3 62/2/3
f 81/1/3 71/1/3 80/1/3
f 82/2/3 73/2/3 72/2/3
f 82/2/3 74/2/3 73/2/3
f 82/2/3 75/2/3 74/2/3
f 82/2/3 76/2/3 75/2/3
f 82/1/3 77/1/3 76/1/3
f 83/2/3 78/2/3 77/2/3
f 83/1/3 77/1/3 82/1/3
f 84/1/3 79/1/3 78/1/3
f 84/2/3 78/2/3 83/2/3
f 85/1/3 62/1/3 79/1/3
f 85/1/3 79/1/3 84/1/3
f 85/2/3 81/2/3 80/2/3
f 85/2/3 80/2/3 62/2/3
f 86/2/3 82/2/3 72/2/3
f 86/2/3 84/2/3 83/2/3
f 86/2/3 85/2/3 84/2/3
f 86/2/3 83/2/3 82/2/3
f 86/2/3 72/2/3 55/2/3
f 87/2/3 81/2/3 85/2/3
f 87/2/3 85/2/3 86/2/3
f 88/2/4 89/2/4 90/2/4
f 90/2/4 89/2/4 91/2/4
f 88/2/4 90/2/4 92/2/4
f 92/2/4 90/2/4 93/2/4
f 93/2/4 90/2/4 94/2/4
f 94/2/4 90/2/4 95/2/4
f 95/2/4 90/2/4 96/2/4
f 90/1/4 91/1/4 97/1/4
f 96/2/4 90/2/4 97/2/4
f 91/2/4 89/2/4 98/2/4
f 98/2/4 89/2/4 99/2/4
f 92/1/4 93/1/4 100/1/4
f 93/2/4 94/2/4 100/2/4
f 100/2/4 94/2/4 101/2/4
f 94/1/4 95/1/4 102/1/4
f 101/2/4 94/2/4 102/2/4
f 95/2/4 96/2/4 103/2/4
f 102/1/4 95/1/4 103/1/4
f 103/2/4 96/2/4 104/2/4
f 96/1/4 97/1/4 105/1/4
f 104/2/4 96/2/4 105/2/4
f 97/1/4 91/1/4 106/1/4
f 105/1/4 97/1/4 106/1/4
f 91/2/4 98/2/4 106/2/4
f 106/2/4 98/2/4 107/2/4
f 107/2/4 98/2/4 108/2/4
f 108/2/4 98/2/4 109/2/4
f 109/2/4 98/2/4 110/2/4
f 98/1/4 99/1/4 111/1/4
f 110/2/4 98/2/4 111/2/4
f 111/1/4 99/1/4 112/1/4
f 88/2/4 92/2/4 113/2/4
f 100/1/4 101/1/4 113/1/4
f 92/1/4 100/1/4 113/1/4
f 101/2/4 102/2/4 114/2/4
f 113/1/4 101/1/4 114/1/4
f 102/2/4 103/2/4 114/2/4
f 103/1/4 104/1/4 115/1/4
f 114/2/4 103/2/4 115/2/4
f 104/2/4 105/2/4 116/2/4
f 115/1/4 104/1/4 116/1/4
f 105/2/4 106/2/4 116/2/4
f 106/2/4 107/2/4 116/2/4
f 116/2/4 107/2/4 117/2/4
f 117/2/4 107/2/4 118/2/4
f 107/1/4 108/1/4 119/1/4
f 118/2/4 107/2/4 119/2/4
f 108/2/4 109/2/4 120/2/4
f 119/1/4 108/1/4 120/1/4
f 114/2/4 115/2/4 121/2/4
f 113/2/4 114/2/4 121/2/4
f 117/1/4 118/1/4 121/1/4
f 116/2/4 117/2/4 121/2/4
f 115/2/4 116/2/4 121/2/4
f 119/2/4 120/2/4 122/2/4
f 121/1/4 118/1/4 122/1/4
f 118/2/4 119/2/4 122/2/4
f 120/2/4 109/2/4 123/2/4
f 122/2/4 120/2/4 123/2/4
f 109/1/4 110/1/4 123/1/4
f 110/2/4 111/2/4 124/2/4
f 123/1/4 110/1/4 124/1/4
f 111/2/4 112/2/4 124/2/4
f 124/2/4 112/2/4 125/2/4
f 121/2/4 122/2/4 126/2/4
f 88/2/4 113/2/4 126/2/4
f 122/2/4 123/2/4 126/2/4
f 123/2/4 124/2/4 126/2/4
f 113/2/4 121/2/4 126/2/4
f 124/1/4 125/1/4 127/1/4
f 126/2/4 124/2/4 127/2/4
f 125/2/4 112/2/4 128/2/4
f 127/1/4 125/1/4 128/1/4
f 128/2/4 112/2/4 129/2/4
f 130/3/4 131/3/4 132/3/4
f 132/3/4 131/3/4 133/3/4
f 136/3/5 135/3/5 134/3/5
f 137/3/5 135/3/5 136/3/5
f 138/3/6 139/3/6 140/3/6
f 140/3/6 139/3/6 141/3/6
f 138/3/6 140/3/6 142/3/6
f 141/3/6 139/3/6 143/3/6
f 138/3/6 142/3/6 144/3/6
f 142/3/6 143/3/6 144/3/6
f 143/3/6 139/3/6 145/3/6
f 144/3/6 143/3/6 145/3/6
f 146/2/6 147/2/6 150/2/6
f 147/1/6 148/1/6 150/1/6
f 148/2/6 149/2/6 151/2/6
f 150/1/6 148/1/6 151/1/6
f 146/2/6 150/2/6 152/2/6
f 150/2/6 151/2/6 152/2/6
f 152/2/6 151/2/6 153/2/6
f 146/2/6 152/2/6 154/2/6
f 152/1/6 153/1/6 155/1/6
f 154/2/6 152/2/6 155/2/6
f 153/2/6 151/2/6 156/2/6
f 155/1/6 153/1/6 156/1/6
f 151/2/6 149/2/6 157/2/6
f 156/2/6 151/2/6 157/2/6
