# MagicaVoxel @ Ephtracy

# group
o 

# material
mtllib horse head.mtl
usemtl palette

# normals
vn -1 0 0
vn 1 0 0
vn 0 0 1
vn 0 0 -1
vn 0 -1 0
vn 0 1 0

# texcoords
vt 0.369141 0.5
vt 0.537109 0.5
vt 0.677734 0.5
vt 0.958984 0.5
vt 0.974609 0.5
vt 0.990234 0.5
vt 0.994141 0.5

# verts
v -0.3 1 0.2
v -0.3 1 -0.3
v -0.3 1.2 -0.1
v -0.3 1.2 -0.2
v -0.3 1.4 -0.1
v -0.3 1.4 -0.2
v -0.3 1.5 0.1
v -0.3 1.5 -0.1
v -0.3 1.6 0
v -0.3 1.6 -0.1
v -0.3 1.7 -0.3
v -0.3 1.7 -0.4
v -0.3 1.8 0.1
v -0.3 1.8 0
v -0.3 1.9 -0.4
v -0.3 1.9 -0.5
v -0.3 1.9 -0.6
v -0.3 2 -0.6
v -0.3 2 -0.7
v -0.3 2.1 -0.1
v -0.3 2.1 -0.2
v -0.3 2.1 -0.3
v -0.3 2.2 -0.1
v -0.3 2.2 -0.2
v -0.3 2.2 -0.3
v -0.3 2.2 -0.6
v -0.3 2.2 -0.7
v -0.3 2.3 -0.2
v -0.3 2.3 -0.5
v -0.3 2.3 -0.6
v -0.3 2.4 -0.1
v -0.3 2.4 -0.2
v -0.3 2.5 0.3
v -0.3 2.5 0.2
v -0.3 2.5 0
v -0.3 2.5 -0.1
v -0.3 2.6 0.3
v -0.3 2.6 0
v -0.2 0.8 0.1
v -0.2 0.8 -0.2
v -0.2 1 0.1
v -0.2 1 -0.2
v -0.2 1.4 0.3
v -0.2 1.4 0.2
v -0.2 1.8 0.4
v -0.2 1.8 0.3
v -0.2 1.8 -0.4
v -0.2 1.8 -0.5
v -0.2 1.9 -0.4
v -0.2 1.9 -0.5
v -0.2 1.9 -0.6
v -0.2 1.9 -0.7
v -0.2 2 -0.6
v -0.2 2 -0.7
v -0.2 2.2 0.4
v -0.2 2.2 0.3
v -0.2 2.2 -0.6
v -0.2 2.2 -0.7
v -0.2 2.3 -0.6
v -0.2 2.3 -0.7
v -0.2 2.4 0.3
v -0.2 2.4 0.2
v -0.1 1.3 0.3
v -0.1 1.3 0.2
v -0.1 1.4 0.3
v -0.1 1.4 0.2
v -0.1 1.6 0.4
v -0.1 1.6 0.3
v -0.1 1.8 0.4
v -0.1 1.8 0.3
v -0.1 1.8 -0.5
v -0.1 1.8 -0.6
v -0.1 1.9 -0.5
v -0.1 1.9 -0.6
v -0.1 2 -0.6
v -0.1 2 -0.7
v -0.1 2.2 0.4
v -0.1 2.2 0.3
v -0.1 2.2 -0.6
v -0.1 2.2 -0.7
v -0.1 2.3 0.4
v -0.1 2.3 0.3
v -0.1 2.3 -0.1
v -0.1 2.3 -0.2
v -0.1 2.4 -0.1
v -0.1 2.4 -0.2
v 0 1.5 0.4
v 0 1.5 0.3
v 0 1.6 0.4
v 0 1.6 0.3
v 0.2 2 -0.6
v 0.2 2 -0.7
v 0.2 2.2 -0.6
v 0.2 2.2 -0.7
v 0.2 2.3 -0.1
v 0.2 2.3 -0.2
v 0.2 2.4 0.2
v 0.2 2.4 -0.1
v 0.2 2.4 -0.2
v 0.2 2.5 0.3
v 0.2 2.5 0.2
v 0.2 2.5 0
v 0.2 2.5 -0.1
v 0.2 2.6 0.3
v 0.2 2.6 0
v -0.2 2 -0.6
v -0.2 2 -0.7
v -0.2 2.2 -0.6
v -0.2 2.2 -0.7
v -0.2 2.3 -0.1
v -0.2 2.3 -0.2
v -0.2 2.4 0.2
v -0.2 2.4 -0.1
v -0.2 2.4 -0.2
v -0.2 2.5 0.3
v -0.2 2.5 0.2
v -0.2 2.5 0
v -0.2 2.5 -0.1
v -0.2 2.6 0.3
v -0.2 2.6 0
v 0.1 1.3 0.3
v 0.1 1.3 0.2
v 0.1 1.4 0.3
v 0.1 1.4 0.2
v 0.1 1.5 0.4
v 0.1 1.5 0.3
v 0.1 1.7 0.4
v 0.1 1.7 0.3
v 0.1 1.8 -0.5
v 0.1 1.8 -0.6
v 0.1 1.9 -0.5
v 0.1 1.9 -0.6
v 0.1 2 -0.6
v 0.1 2 -0.7
v 0.1 2.1 0.4
v 0.1 2.1 0.3
v 0.1 2.2 -0.6
v 0.1 2.2 -0.7
v 0.1 2.3 0.4
v 0.1 2.3 0.3
v 0.1 2.3 -0.1
v 0.1 2.3 -0.2
v 0.1 2.4 -0.1
v 0.1 2.4 -0.2
v 0.2 0.8 0.1
v 0.2 0.8 -0.2
v 0.2 1 0.1
v 0.2 1 -0.2
v 0.2 1.4 0.3
v 0.2 1.4 0.2
v 0.2 1.7 0.4
v 0.2 1.7 0.3
v 0.2 1.8 -0.4
v 0.2 1.8 -0.5
v 0.2 1.9 -0.4
v 0.2 1.9 -0.5
v 0.2 1.9 -0.6
v 0.2 1.9 -0.7
v 0.2 2 -0.6
v 0.2 2 -0.7
v 0.2 2.1 0.4
v 0.2 2.1 0.3
v 0.2 2.2 -0.6
v 0.2 2.2 -0.7
v 0.2 2.3 -0.6
v 0.2 2.3 -0.7
v 0.2 2.4 0.3
v 0.2 2.4 0.2
v 0.3 1 0.2
v 0.3 1 -0.3
v 0.3 1.2 0
v 0.3 1.2 -0.1
v 0.3 1.3 -0.1
v 0.3 1.3 -0.2
v 0.3 1.4 0
v 0.3 1.4 -0.2
v 0.3 1.6 0.1
v 0.3 1.6 0
v 0.3 1.7 0
v 0.3 1.7 -0.1
v 0.3 1.7 -0.3
v 0.3 1.7 -0.4
v 0.3 1.9 0.1
v 0.3 1.9 -0.1
v 0.3 1.9 -0.4
v 0.3 1.9 -0.5
v 0.3 1.9 -0.6
v 0.3 2 -0.6
v 0.3 2 -0.7
v 0.3 2.1 -0.1
v 0.3 2.1 -0.2
v 0.3 2.1 -0.3
v 0.3 2.2 -0.1
v 0.3 2.2 -0.2
v 0.3 2.2 -0.3
v 0.3 2.2 -0.6
v 0.3 2.2 -0.7
v 0.3 2.3 -0.2
v 0.3 2.3 -0.5
v 0.3 2.3 -0.6
v 0.3 2.4 -0.1
v 0.3 2.4 -0.2
v 0.3 2.5 0.3
v 0.3 2.5 0.2
v 0.3 2.5 0
v 0.3 2.5 -0.1
v 0.3 2.6 0.3
v 0.3 2.6 0
v -0.2 1.8 0.4
v -0.2 2.2 0.4
v -0.1 1.6 0.4
v -0.1 1.8 0.4
v -0.1 2.2 0.4
v -0.1 2.3 0.4
v 0 1.5 0.4
v 0 1.6 0.4
v 0.1 1.5 0.4
v 0.1 1.7 0.4
v 0.1 2.1 0.4
v 0.1 2.3 0.4
v 0.2 1.7 0.4
v 0.2 2.1 0.4
v -0.3 2.5 0.3
v -0.3 2.6 0.3
v -0.2 1.4 0.3
v -0.2 1.8 0.3
v -0.2 2.2 0.3
v -0.2 2.4 0.3
v -0.2 2.5 0.3
v -0.2 2.6 0.3
v -0.1 1.3 0.3
v -0.1 1.4 0.3
v -0.1 1.6 0.3
v -0.1 1.8 0.3
v -0.1 2.2 0.3
v -0.1 2.3 0.3
v 0 1.5 0.3
v 0 1.6 0.3
v 0.1 1.3 0.3
v 0.1 1.4 0.3
v 0.1 1.5 0.3
v 0.1 1.7 0.3
v 0.1 2.1 0.3
v 0.1 2.3 0.3
v 0.2 1.4 0.3
v 0.2 1.7 0.3
v 0.2 2.1 0.3
v 0.2 2.4 0.3
v 0.2 2.5 0.3
v 0.2 2.6 0.3
v 0.3 2.5 0.3
v 0.3 2.6 0.3
v -0.3 1 0.2
v -0.3 2.5 0.2
v -0.2 1.4 0.2
v -0.2 2.4 0.2
v -0.2 2.5 0.2
v -0.1 1.3 0.2
v -0.1 1.4 0.2
v 0.1 1.3 0.2
v 0.1 1.4 0.2
v 0.2 1.4 0.2
v 0.2 2.4 0.2
v 0.2 2.5 0.2
v 0.3 1 0.2
v 0.3 2.5 0.2
v -0.2 0.8 0.1
v -0.2 1 0.1
v 0.2 0.8 0.1
v 0.2 1 0.1
v -0.3 2.5 0
v -0.3 2.6 0
v -0.2 2.5 0
v -0.2 2.6 0
v 0.2 2.5 0
v 0.2 2.6 0
v 0.3 2.5 0
v 0.3 2.6 0
v -0.3 2.4 -0.1
v -0.3 2.5 -0.1
v -0.2 2.3 -0.1
v -0.2 2.4 -0.1
v -0.2 2.5 -0.1
v -0.1 2.3 -0.1
v -0.1 2.4 -0.1
v 0.1 2.3 -0.1
v 0.1 2.4 -0.1
v 0.2 2.3 -0.1
v 0.2 2.4 -0.1
v 0.2 2.5 -0.1
v 0.3 2.4 -0.1
v 0.3 2.5 -0.1
v -0.3 2.3 -0.2
v -0.3 2.4 -0.2
v -0.2 0.8 -0.2
v -0.2 1 -0.2
v -0.2 2.3 -0.2
v -0.2 2.4 -0.2
v -0.1 2.3 -0.2
v -0.1 2.4 -0.2
v 0.1 2.3 -0.2
v 0.1 2.4 -0.2
v 0.2 0.8 -0.2
v 0.2 1 -0.2
v 0.2 2.3 -0.2
v 0.2 2.4 -0.2
v 0.3 2.3 -0.2
v 0.3 2.4 -0.2
v -0.3 1 -0.3
v -0.3 1.7 -0.3
v 0.3 1 -0.3
v 0.3 1.7 -0.3
v -0.3 1.7 -0.4
v -0.3 1.9 -0.4
v -0.2 1.8 -0.4
v -0.2 1.9 -0.4
v 0.2 1.8 -0.4
v 0.2 1.9 -0.4
v 0.3 1.7 -0.4
v 0.3 1.9 -0.4
v -0.2 1.8 -0.5
v -0.2 1.9 -0.5
v -0.1 1.8 -0.5
v -0.1 1.9 -0.5
v 0.1 1.8 -0.5
v 0.1 1.9 -0.5
v 0.2 1.8 -0.5
v 0.2 1.9 -0.5
v -0.3 1.9 -0.6
v -0.3 2 -0.6
v -0.3 2.2 -0.6
v -0.3 2.3 -0.6
v -0.2 1.9 -0.6
v -0.2 2 -0.6
v -0.2 2.2 -0.6
v -0.2 2.3 -0.6
v -0.1 1.8 -0.6
v -0.1 1.9 -0.6
v -0.1 2 -0.6
v -0.1 2.2 -0.6
v 0.1 1.8 -0.6
v 0.1 1.9 -0.6
v 0.1 2 -0.6
v 0.1 2.2 -0.6
v 0.2 1.9 -0.6
v 0.2 2 -0.6
v 0.2 2.2 -0.6
v 0.2 2.3 -0.6
v 0.3 1.9 -0.6
v 0.3 2 -0.6
v 0.3 2.2 -0.6
v 0.3 2.3 -0.6
v -0.3 2 -0.7
v -0.3 2.2 -0.7
v -0.2 1.9 -0.7
v -0.2 2 -0.7
v -0.2 2.2 -0.7
v -0.2 2.3 -0.7
v -0.1 2 -0.7
v -0.1 2.2 -0.7
v 0.1 2 -0.7
v 0.1 2.2 -0.7
v 0.2 1.9 -0.7
v 0.2 2 -0.7
v 0.2 2.2 -0.7
v 0.2 2.3 -0.7
v 0.3 2 -0.7
v 0.3 2.2 -0.7
v -0.2 0.8 0.1
v 0.2 0.8 0.1
v -0.2 0.8 -0.2
v 0.2 0.8 -0.2
v -0.3 1 0.2
v 0.3 1 0.2
v -0.2 1 0.1
v 0.2 1 0.1
v -0.2 1 -0.2
v 0.2 1 -0.2
v -0.3 1 -0.3
v 0.3 1 -0.3
v -0.1 1.3 0.3
v 0.1 1.3 0.3
v -0.1 1.3 0.2
v 0.1 1.3 0.2
v -0.2 1.4 0.3
v -0.1 1.4 0.3
v 0.1 1.4 0.3
v 0.2 1.4 0.3
v -0.2 1.4 0.2
v -0.1 1.4 0.2
v 0.1 1.4 0.2
v 0.2 1.4 0.2
v 0 1.5 0.4
v 0.1 1.5 0.4
v 0 1.5 0.3
v 0.1 1.5 0.3
v -0.1 1.6 0.4
v 0 1.6 0.4
v -0.1 1.6 0.3
v 0 1.6 0.3
v 0.1 1.7 0.4
v 0.2 1.7 0.4
v 0.1 1.7 0.3
v 0.2 1.7 0.3
v -0.3 1.7 -0.3
v 0.3 1.7 -0.3
v -0.3 1.7 -0.4
v 0.3 1.7 -0.4
v -0.2 1.8 0.4
v -0.1 1.8 0.4
v -0.2 1.8 0.3
v -0.1 1.8 0.3
v -0.2 1.8 -0.4
v 0.2 1.8 -0.4
v -0.2 1.8 -0.5
v -0.1 1.8 -0.5
v 0.1 1.8 -0.5
v 0.2 1.8 -0.5
v -0.1 1.8 -0.6
v 0.1 1.8 -0.6
v -0.3 1.9 -0.4
v -0.2 1.9 -0.4
v 0.2 1.9 -0.4
v 0.3 1.9 -0.4
v -0.3 1.9 -0.5
v -0.2 1.9 -0.5
v -0.1 1.9 -0.5
v 0.1 1.9 -0.5
v 0.2 1.9 -0.5
v 0.3 1.9 -0.5
v -0.3 1.9 -0.6
v -0.2 1.9 -0.6
v -0.1 1.9 -0.6
v 0.1 1.9 -0.6
v 0.2 1.9 -0.6
v 0.3 1.9 -0.6
v -0.2 1.9 -0.7
v 0.2 1.9 -0.7
v -0.3 2 -0.6
v -0.2 2 -0.6
v 0.2 2 -0.6
v 0.3 2 -0.6
v -0.3 2 -0.7
v -0.2 2 -0.7
v 0.2 2 -0.7
v 0.3 2 -0.7
v -0.2 2.2 -0.6
v -0.1 2.2 -0.6
v 0.1 2.2 -0.6
v 0.2 2.2 -0.6
v -0.2 2.2 -0.7
v -0.1 2.2 -0.7
v 0.1 2.2 -0.7
v 0.2 2.2 -0.7
v -0.3 2.5 0.3
v -0.2 2.5 0.3
v 0.2 2.5 0.3
v 0.3 2.5 0.3
v -0.3 2.5 0.2
v -0.2 2.5 0.2
v 0.2 2.5 0.2
v 0.3 2.5 0.2
v -0.2 2 -0.6
v -0.1 2 -0.6
v 0.1 2 -0.6
v 0.2 2 -0.6
v -0.2 2 -0.7
v -0.1 2 -0.7
v 0.1 2 -0.7
v 0.2 2 -0.7
v 0.1 2.1 0.4
v 0.2 2.1 0.4
v 0.1 2.1 0.3
v 0.2 2.1 0.3
v -0.2 2.2 0.4
v -0.1 2.2 0.4
v -0.2 2.2 0.3
v -0.1 2.2 0.3
v -0.3 2.2 -0.6
v -0.2 2.2 -0.6
v 0.2 2.2 -0.6
v 0.3 2.2 -0.6
v -0.3 2.2 -0.7
v -0.2 2.2 -0.7
v 0.2 2.2 -0.7
v 0.3 2.2 -0.7
v -0.1 2.3 0.4
v 0.1 2.3 0.4
v -0.1 2.3 0.3
v 0.1 2.3 0.3
v -0.2 2.3 -0.1
v -0.1 2.3 -0.1
v 0.1 2.3 -0.1
v 0.2 2.3 -0.1
v -0.3 2.3 -0.2
v -0.2 2.3 -0.2
v -0.1 2.3 -0.2
v 0.1 2.3 -0.2
v 0.2 2.3 -0.2
v 0.3 2.3 -0.2
v -0.3 2.3 -0.5
v -0.1 2.3 -0.5
v 0.1 2.3 -0.5
v 0.3 2.3 -0.5
v -0.3 2.3 -0.6
v -0.2 2.3 -0.6
v 0.2 2.3 -0.6
v 0.3 2.3 -0.6
v -0.2 2.3 -0.7
v 0.2 2.3 -0.7
v -0.2 2.4 0.3
v 0.2 2.4 0.3
v -0.2 2.4 0.2
v 0.2 2.4 0.2
v -0.3 2.4 -0.1
v -0.2 2.4 -0.1
v -0.1 2.4 -0.1
v 0.1 2.4 -0.1
v 0.2 2.4 -0.1
v 0.3 2.4 -0.1
v -0.3 2.4 -0.2
v -0.2 2.4 -0.2
v -0.1 2.4 -0.2
v 0.1 2.4 -0.2
v 0.2 2.4 -0.2
v 0.3 2.4 -0.2
v -0.3 2.5 0
v -0.2 2.5 0
v 0.2 2.5 0
v 0.3 2.5 0
v -0.3 2.5 -0.1
v -0.2 2.5 -0.1
v 0.2 2.5 -0.1
v 0.3 2.5 -0.1
v -0.3 2.6 0.3
v -0.2 2.6 0.3
v 0.2 2.6 0.3
v 0.3 2.6 0.3
v -0.3 2.6 0
v -0.2 2.6 0
v 0.2 2.6 0
v 0.3 2.6 0

# faces
f 3/2/1 2/2/1 1/2/1
f 4/2/1 2/2/1 3/2/1
f 5/2/1 3/2/1 1/2/1
f 5/1/1 4/1/1 3/1/1
f 6/2/1 2/2/1 4/2/1
f 6/1/1 4/1/1 5/1/1
f 7/2/1 5/2/1 1/2/1
f 7/2/1 6/2/1 5/2/1
f 8/2/1 6/2/1 7/2/1
f 9/1/1 8/1/1 7/1/1
f 10/2/1 6/2/1 8/2/1
f 10/1/1 8/1/1 9/1/1
f 11/2/1 2/2/1 6/2/1
f 11/2/1 6/2/1 10/2/1
f 11/2/1 10/2/1 9/2/1
f 13/1/1 9/1/1 7/1/1
f 13/2/1 7/2/1 1/2/1
f 14/2/1 12/2/1 11/2/1
f 14/1/1 9/1/1 13/1/1
f 14/2/1 11/2/1 9/2/1
f 15/2/1 14/2/1 13/2/1
f 15/2/1 12/2/1 14/2/1
f 18/3/1 17/3/1 16/3/1
f 20/2/1 15/2/1 13/2/1
f 20/2/1 16/2/1 15/2/1
f 21/2/1 16/2/1 20/2/1
f 22/2/1 16/2/1 21/2/1
f 23/2/1 20/2/1 13/2/1
f 23/4/1 21/4/1 20/4/1
f 24/7/1 22/7/1 21/7/1
f 24/4/1 21/4/1 23/4/1
f 25/2/1 16/2/1 22/2/1
f 25/7/1 22/7/1 24/7/1
f 26/3/1 19/3/1 18/3/1
f 26/3/1 18/3/1 16/3/1
f 27/3/1 19/3/1 26/3/1
f 28/2/1 25/2/1 24/2/1
f 28/2/1 24/2/1 23/2/1
f 29/2/1 16/2/1 25/2/1
f 29/2/1 25/2/1 28/2/1
f 29/3/1 26/3/1 16/3/1
f 30/3/1 26/3/1 29/3/1
f 31/2/1 28/2/1 23/2/1
f 31/2/1 23/2/1 13/2/1
f 32/2/1 28/2/1 31/2/1
f 34/2/1 13/2/1 1/2/1
f 34/2/1 31/2/1 13/2/1
f 35/2/1 31/2/1 34/2/1
f 36/2/1 31/2/1 35/2/1
f 37/2/1 34/2/1 33/2/1
f 37/2/1 35/2/1 34/2/1
f 38/2/1 35/2/1 37/2/1
f 41/2/1 40/2/1 39/2/1
f 42/2/1 40/2/1 41/2/1
f 46/6/1 44/6/1 43/6/1
f 49/2/1 48/2/1 47/2/1
f 50/2/1 48/2/1 49/2/1
f 53/3/1 52/3/1 51/3/1
f 54/3/1 52/3/1 53/3/1
f 55/6/1 46/6/1 45/6/1
f 56/6/1 44/6/1 46/6/1
f 56/6/1 46/6/1 55/6/1
f 59/3/1 58/3/1 57/3/1
f 60/3/1 58/3/1 59/3/1
f 61/6/1 44/6/1 56/6/1
f 62/6/1 44/6/1 61/6/1
f 65/6/1 64/6/1 63/6/1
f 66/6/1 64/6/1 65/6/1
f 69/6/1 68/6/1 67/6/1
f 70/6/1 68/6/1 69/6/1
f 73/3/1 72/3/1 71/3/1
f 74/3/1 72/3/1 73/3/1
f 79/3/1 76/3/1 75/3/1
f 80/3/1 76/3/1 79/3/1
f 81/6/1 78/6/1 77/6/1
f 82/6/1 78/6/1 81/6/1
f 85/6/1 84/6/1 83/6/1
f 86/6/1 84/6/1 85/6/1
f 89/6/1 88/6/1 87/6/1
f 90/6/1 88/6/1 89/6/1
f 93/3/1 92/3/1 91/3/1
f 94/3/1 92/3/1 93/3/1
f 98/2/1 96/2/1 95/2/1
f 99/2/1 96/2/1 98/2/1
f 101/2/1 98/2/1 97/2/1
f 102/2/1 98/2/1 101/2/1
f 103/2/1 98/2/1 102/2/1
f 104/2/1 101/2/1 100/2/1
f 104/2/1 102/2/1 101/2/1
f 105/2/1 102/2/1 104/2/1
f 106/3/2 107/3/2 108/3/2
f 108/3/2 107/3/2 109/3/2
f 110/2/2 111/2/2 113/2/2
f 113/2/2 111/2/2 114/2/2
f 112/2/2 113/2/2 116/2/2
f 116/2/2 113/2/2 117/2/2
f 117/2/2 113/2/2 118/2/2
f 115/2/2 116/2/2 119/2/2
f 116/2/2 117/2/2 119/2/2
f 119/2/2 117/2/2 120/2/2
f 121/6/2 122/6/2 123/6/2
f 123/6/2 122/6/2 124/6/2
f 125/6/2 126/6/2 127/6/2
f 127/6/2 126/6/2 128/6/2
f 129/3/2 130/3/2 131/3/2
f 131/3/2 130/3/2 132/3/2
f 133/3/2 134/3/2 137/3/2
f 137/3/2 134/3/2 138/3/2
f 135/6/2 136/6/2 139/6/2
f 139/6/2 136/6/2 140/6/2
f 141/6/2 142/6/2 143/6/2
f 143/6/2 142/6/2 144/6/2
f 145/2/2 146/2/2 147/2/2
f 147/2/2 146/2/2 148/2/2
f 149/6/2 150/6/2 152/6/2
f 153/2/2 154/2/2 155/2/2
f 155/2/2 154/2/2 156/2/2
f 157/3/2 158/3/2 159/3/2
f 159/3/2 158/3/2 160/3/2
f 151/6/2 152/6/2 161/6/2
f 152/6/2 150/6/2 162/6/2
f 161/6/2 152/6/2 162/6/2
f 163/3/2 164/3/2 165/3/2
f 165/3/2 164/3/2 166/3/2
f 162/6/2 150/6/2 167/6/2
f 167/6/2 150/6/2 168/6/2
f 169/2/2 170/2/2 171/2/2
f 171/2/2 170/2/2 172/2/2
f 171/1/2 172/1/2 173/1/2
f 172/2/2 170/2/2 173/2/2
f 173/2/2 170/2/2 174/2/2
f 169/2/2 171/2/2 175/2/2
f 171/1/2 173/1/2 175/1/2
f 173/1/2 174/1/2 175/1/2
f 174/2/2 170/2/2 176/2/2
f 175/1/2 174/1/2 176/1/2
f 169/2/2 175/2/2 177/2/2
f 175/2/2 176/2/2 177/2/2
f 177/2/2 176/2/2 178/2/2
f 177/1/2 178/1/2 179/1/2
f 178/2/2 176/2/2 179/2/2
f 179/2/2 176/2/2 180/2/2
f 176/2/2 170/2/2 181/2/2
f 180/2/2 176/2/2 181/2/2
f 179/1/2 180/1/2 183/1/2
f 169/2/2 177/2/2 183/2/2
f 177/1/2 179/1/2 183/1/2
f 181/2/2 182/2/2 184/2/2
f 183/1/2 180/1/2 184/1/2
f 180/2/2 181/2/2 184/2/2
f 184/2/2 182/2/2 185/2/2
f 186/3/2 187/3/2 188/3/2
f 183/2/2 184/2/2 190/2/2
f 184/2/2 185/2/2 190/2/2
f 185/2/2 186/2/2 190/2/2
f 190/2/2 186/2/2 191/2/2
f 191/2/2 186/2/2 192/2/2
f 183/2/2 190/2/2 193/2/2
f 190/4/2 191/4/2 193/4/2
f 191/7/2 192/7/2 194/7/2
f 193/4/2 191/4/2 194/4/2
f 192/2/2 186/2/2 195/2/2
f 194/7/2 192/7/2 195/7/2
f 188/3/2 189/3/2 196/3/2
f 186/3/2 188/3/2 196/3/2
f 196/3/2 189/3/2 197/3/2
f 194/2/2 195/2/2 198/2/2
f 193/2/2 194/2/2 198/2/2
f 195/2/2 186/2/2 199/2/2
f 198/2/2 195/2/2 199/2/2
f 186/3/2 196/3/2 199/3/2
f 199/3/2 196/3/2 200/3/2
f 193/2/2 198/2/2 201/2/2
f 183/2/2 193/2/2 201/2/2
f 201/2/2 198/2/2 202/2/2
f 169/2/2 183/2/2 204/2/2
f 183/2/2 201/2/2 204/2/2
f 204/2/2 201/2/2 205/2/2
f 205/2/2 201/2/2 206/2/2
f 203/2/2 204/2/2 207/2/2
f 204/2/2 205/2/2 207/2/2
f 207/2/2 205/2/2 208/2/2
f 212/6/3 210/6/3 209/6/3
f 213/6/3 210/6/3 212/6/3
f 216/6/3 212/6/3 211/6/3
f 216/6/3 214/6/3 213/6/3
f 216/6/3 213/6/3 212/6/3
f 217/6/3 216/6/3 215/6/3
f 218/6/3 214/6/3 216/6/3
f 218/6/3 216/6/3 217/6/3
f 219/6/3 214/6/3 218/6/3
f 220/6/3 214/6/3 219/6/3
f 221/6/3 219/6/3 218/6/3
f 222/6/3 219/6/3 221/6/3
f 229/2/3 224/2/3 223/2/3
f 230/2/3 224/2/3 229/2/3
f 232/6/3 226/6/3 225/6/3
f 233/6/3 226/6/3 232/6/3
f 234/6/3 226/6/3 233/6/3
f 235/6/3 228/6/3 227/6/3
f 236/6/3 228/6/3 235/6/3
f 237/6/3 232/6/3 231/6/3
f 237/6/3 233/6/3 232/6/3
f 238/6/3 233/6/3 237/6/3
f 239/6/3 237/6/3 231/6/3
f 240/6/3 237/6/3 239/6/3
f 241/6/3 237/6/3 240/6/3
f 244/6/3 228/6/3 236/6/3
f 245/6/3 242/6/3 241/6/3
f 245/6/3 241/6/3 240/6/3
f 246/6/3 242/6/3 245/6/3
f 247/6/3 244/6/3 243/6/3
f 248/6/3 228/6/3 244/6/3
f 248/6/3 244/6/3 247/6/3
f 251/2/3 250/2/3 249/2/3
f 252/2/3 250/2/3 251/2/3
f 255/2/3 254/2/3 253/2/3
f 256/2/3 254/2/3 255/2/3
f 257/2/3 254/2/3 256/2/3
f 258/2/3 255/2/3 253/2/3
f 259/2/3 255/2/3 258/2/3
f 260/2/3 258/2/3 253/2/3
f 262/2/3 261/2/3 260/2/3
f 265/2/3 262/2/3 260/2/3
f 265/2/3 264/2/3 263/2/3
f 265/2/3 263/2/3 262/2/3
f 265/2/3 260/2/3 253/2/3
f 266/2/3 264/2/3 265/2/3
f 269/2/3 268/2/3 267/2/3
f 270/2/3 268/2/3 269/2/3
f 271/2/4 272/2/4 273/2/4
f 273/2/4 272/2/4 274/2/4
f 275/2/4 276/2/4 277/2/4
f 277/2/4 276/2/4 278/2/4
f 279/2/4 280/2/4 282/2/4
f 282/2/4 280/2/4 283/2/4
f 281/6/4 282/6/4 284/6/4
f 284/6/4 282/6/4 285/6/4
f 286/6/4 287/6/4 288/6/4
f 288/6/4 287/6/4 289/6/4
f 289/2/4 290/2/4 291/2/4
f 291/2/4 290/2/4 292/2/4
f 293/2/4 294/2/4 297/2/4
f 297/2/4 294/2/4 298/2/4
f 299/6/4 300/6/4 301/6/4
f 301/6/4 300/6/4 302/6/4
f 295/2/4 296/2/4 303/2/4
f 303/2/4 296/2/4 304/2/4
f 305/2/4 306/2/4 307/2/4
f 307/2/4 306/2/4 308/2/4
f 309/2/4 310/2/4 311/2/4
f 311/2/4 310/2/4 312/2/4
f 313/2/4 314/2/4 315/2/4
f 315/2/4 314/2/4 316/2/4
f 313/2/4 315/2/4 317/2/4
f 313/2/4 317/2/4 319/2/4
f 317/2/4 318/2/4 319/2/4
f 319/2/4 318/2/4 320/2/4
f 321/2/4 322/2/4 323/2/4
f 323/2/4 322/2/4 324/2/4
f 325/2/4 326/2/4 327/2/4
f 327/2/4 326/2/4 328/2/4
f 329/3/4 330/3/4 333/3/4
f 333/3/4 330/3/4 334/3/4
f 331/3/4 332/3/4 335/3/4
f 335/3/4 332/3/4 336/3/4
f 334/7/4 335/7/4 339/7/4
f 339/7/4 335/7/4 340/7/4
f 337/3/4 338/3/4 341/3/4
f 341/3/4 338/3/4 342/3/4
f 343/7/4 344/7/4 346/7/4
f 346/7/4 344/7/4 347/7/4
f 345/3/4 346/3/4 349/3/4
f 349/3/4 346/3/4 350/3/4
f 347/3/4 348/3/4 351/3/4
f 351/3/4 348/3/4 352/3/4
f 353/3/4 354/3/4 356/3/4
f 356/3/4 354/3/4 357/3/4
f 355/3/4 356/3/4 359/3/4
f 357/3/4 358/3/4 360/3/4
f 355/3/4 359/3/4 361/3/4
f 359/3/4 360/3/4 361/3/4
f 360/3/4 358/3/4 362/3/4
f 361/3/4 360/3/4 362/3/4
f 355/3/4 361/3/4 363/3/4
f 363/3/4 361/3/4 364/3/4
f 362/3/4 358/3/4 365/3/4
f 365/3/4 358/3/4 366/3/4
f 364/3/4 365/3/4 367/3/4
f 367/3/4 365/3/4 368/3/4
f 371/2/5 370/2/5 369/2/5
f 372/2/5 370/2/5 371/2/5
f 375/2/5 374/2/5 373/2/5
f 376/2/5 374/2/5 375/2/5
f 377/2/5 375/2/5 373/2/5
f 378/2/5 374/2/5 376/2/5
f 379/2/5 377/2/5 373/2/5
f 379/2/5 378/2/5 377/2/5
f 380/2/5 374/2/5 378/2/5
f 380/2/5 378/2/5 379/2/5
f 383/6/5 382/6/5 381/6/5
f 384/6/5 382/6/5 383/6/5
f 389/6/5 386/6/5 385/6/5
f 390/6/5 386/6/5 389/6/5
f 391/6/5 388/6/5 387/6/5
f 392/6/5 388/6/5 391/6/5
f 395/6/5 394/6/5 393/6/5
f 396/6/5 394/6/5 395/6/5
f 399/6/5 398/6/5 397/6/5
f 400/6/5 398/6/5 399/6/5
f 403/6/5 402/6/5 401/6/5
f 404/6/5 402/6/5 403/6/5
f 407/2/5 406/2/5 405/2/5
f 408/2/5 406/2/5 407/2/5
f 411/6/5 410/6/5 409/6/5
f 412/6/5 410/6/5 411/6/5
f 415/2/5 414/2/5 413/2/5
f 416/2/5 414/2/5 415/2/5
f 417/2/5 414/2/5 416/2/5
f 418/2/5 414/2/5 417/2/5
f 419/3/5 417/3/5 416/3/5
f 420/3/5 417/3/5 419/3/5
f 425/2/5 422/2/5 421/2/5
f 426/2/5 422/2/5 425/2/5
f 429/2/5 424/2/5 423/2/5
f 430/2/5 424/2/5 429/2/5
f 431/3/5 427/3/5 426/3/5
f 431/3/5 426/3/5 425/3/5
f 432/3/5 427/3/5 431/3/5
f 433/3/5 427/3/5 432/3/5
f 434/3/5 430/3/5 429/3/5
f 434/3/5 429/3/5 428/3/5
f 435/3/5 430/3/5 434/3/5
f 436/3/5 430/3/5 435/3/5
f 437/3/5 433/3/5 432/3/5
f 437/3/5 435/3/5 434/3/5
f 437/3/5 434/3/5 433/3/5
f 438/3/5 435/3/5 437/3/5
f 443/3/5 440/3/5 439/3/5
f 444/3/5 440/3/5 443/3/5
f 445/3/5 442/3/5 441/3/5
f 446/3/5 442/3/5 445/3/5
f 451/3/5 448/3/5 447/3/5
f 452/3/5 448/3/5 451/3/5
f 453/3/5 450/3/5 449/3/5
f 454/3/5 450/3/5 453/3/5
f 459/2/5 456/2/5 455/2/5
f 460/2/5 456/2/5 459/2/5
f 461/2/5 458/2/5 457/2/5
f 462/2/5 458/2/5 461/2/5
f 463/3/6 464/3/6 467/3/6
f 467/3/6 464/3/6 468/3/6
f 465/3/6 466/3/6 469/3/6
f 469/3/6 466/3/6 470/3/6
f 471/6/6 472/6/6 473/6/6
f 473/6/6 472/6/6 474/6/6
f 475/6/6 476/6/6 477/6/6
f 477/6/6 476/6/6 478/6/6
f 479/3/6 480/3/6 483/3/6
f 483/3/6 480/3/6 484/3/6
f 481/3/6 482/3/6 485/3/6
f 485/3/6 482/3/6 486/3/6
f 487/6/6 488/6/6 489/6/6
f 489/6/6 488/6/6 490/6/6
f 491/2/6 492/2/6 496/2/6
f 496/2/6 492/2/6 497/2/6
f 493/2/6 494/2/6 498/2/6
f 498/2/6 494/2/6 499/2/6
f 496/2/6 497/2/6 501/2/6
f 495/2/6 496/2/6 501/2/6
f 497/5/6 498/5/6 502/5/6
f 501/2/6 497/2/6 502/2/6
f 499/2/6 500/2/6 503/2/6
f 502/5/6 498/5/6 503/5/6
f 498/2/6 499/2/6 503/2/6
f 503/2/6 500/2/6 504/2/6
f 501/3/6 502/3/6 505/3/6
f 502/3/6 503/3/6 505/3/6
f 503/3/6 504/3/6 505/3/6
f 505/3/6 504/3/6 506/3/6
f 506/3/6 504/3/6 507/3/6
f 507/3/6 504/3/6 508/3/6
f 506/3/6 507/3/6 509/3/6
f 509/3/6 507/3/6 510/3/6
f 511/6/6 512/6/6 513/6/6
f 513/6/6 512/6/6 514/6/6
f 513/6/6 514/6/6 516/6/6
f 516/6/6 514/6/6 517/6/6
f 517/6/6 514/6/6 518/6/6
f 518/6/6 514/6/6 519/6/6
f 515/2/6 516/2/6 521/2/6
f 521/2/6 516/2/6 522/2/6
f 517/6/6 518/6/6 523/6/6
f 523/6/6 518/6/6 524/6/6
f 519/2/6 520/2/6 525/2/6
f 525/2/6 520/2/6 526/2/6
f 527/2/6 528/2/6 531/2/6
f 531/2/6 528/2/6 532/2/6
f 529/2/6 530/2/6 533/2/6
f 533/2/6 530/2/6 534/2/6
f 535/2/6 536/2/6 539/2/6
f 539/2/6 536/2/6 540/2/6
f 537/2/6 538/2/6 541/2/6
f 541/2/6 538/2/6 542/2/6
